<?xml version="1.0" encoding="UTF-8"?>
<svg xmlns="http://www.w3.org/2000/svg" version="1.1" viewBox="0 0 170 180">
  <!-- Generator: Adobe Illustrator 29.8.2, SVG Export Plug-In . SVG Version: 2.1.1 Build 3)  -->
  <defs>
    <style>
      .st0 {
        fill: #bfc1c3;
      }

      .st1 {
        fill: #fff;
      }

      .st2 {
        fill: none;
        stroke: #fff;
        stroke-miterlimit: 10;
      }

      .st3 {
        fill: #0078ae;
      }

      .st4 {
        isolation: isolate;
      }

      .st5 {
        fill: #015287;
      }

      .st6 {
        fill: #5e9741;
      }

      .st7 {
        display: none;
      }

      .st8 {
        fill: #005288;
      }

      .st9 {
        fill: #d1d1d1;
      }

      .st10 {
        fill: #c32032;
      }

      .st11 {
        fill: #0378ad;
      }
    </style>
  </defs>
  <g id="Layer_1">
    <rect class="st3" width="170" height="100"/>
    <rect class="st8" y="100" width="170" height="80"/>
    <path class="st1" d="M169,1v178H1V1h168M170,0H0v180h170V0h0Z"/>
    <line class="st2" y1="99.5" x2="170" y2="99.5"/>
  </g>
  <g id="Alert_Text">
    <g>
      <path class="st1" d="M30.2,123.6h2.3l4,7.2,1.3,2.7h0c0-.7-.1-1.4-.2-2.1,0-.8-.1-1.5-.1-2.2v-5.5h2.2v12.8h-2.3l-4-7.2-1.3-2.7h0c0,.7.1,1.4.2,2.1,0,.7.1,1.5.1,2.2v5.6h-2.2v-12.8Z"/>
      <path class="st1" d="M47.9,136.6c-.8,0-1.6-.2-2.3-.5s-1.3-.7-1.8-1.3c-.5-.6-.9-1.3-1.2-2.1-.3-.8-.4-1.8-.4-2.8s.1-2,.4-2.8c.3-.8.7-1.5,1.2-2.1s1.1-1,1.8-1.3c.7-.3,1.5-.4,2.3-.4s1.6.2,2.3.4c.7.3,1.3.7,1.8,1.3.5.6.9,1.2,1.2,2.1s.4,1.7.4,2.8-.1,2-.4,2.8c-.3.8-.7,1.5-1.2,2.1-.5.6-1.1,1-1.8,1.3s-1.5.5-2.3.5ZM47.9,134.6c.5,0,1-.1,1.4-.3s.7-.5,1-.9c.3-.4.5-.9.7-1.5.2-.6.2-1.2.2-1.9,0-1.4-.3-2.6-.9-3.4-.6-.8-1.4-1.2-2.4-1.2s-1.8.4-2.4,1.2c-.6.8-.9,1.9-.9,3.4s0,1.4.2,1.9c.2.6.4,1.1.7,1.5.3.4.6.7,1,.9.4.2.9.3,1.4.3Z"/>
      <path class="st1" d="M59.5,130c0-1,.2-2,.5-2.8s.7-1.5,1.3-2.1,1.2-1,1.9-1.3c.7-.3,1.5-.4,2.3-.4s1.5.2,2.1.5c.6.3,1.1.7,1.5,1.1l-1.3,1.4c-.3-.3-.7-.6-1-.8-.4-.2-.8-.3-1.3-.3s-1,.1-1.5.3c-.4.2-.8.5-1.1.9-.3.4-.6.9-.7,1.5s-.3,1.2-.3,1.9c0,1.5.3,2.6.9,3.4s1.5,1.2,2.6,1.2,1.1-.1,1.5-.3c.4-.2.8-.5,1.2-.9l1.3,1.4c-.5.6-1.1,1.1-1.8,1.4-.7.3-1.4.5-2.2.5s-1.6-.1-2.3-.4-1.3-.7-1.8-1.3c-.5-.6-.9-1.2-1.2-2.1-.3-.8-.4-1.8-.4-2.8Z"/>
      <path class="st1" d="M71,123.6h2.3v7.3c0,.7,0,1.3.2,1.7.1.5.3.9.5,1.1s.5.5.8.6.7.2,1.1.2.7,0,1.1-.2c.3-.1.6-.3.8-.6.2-.3.4-.7.5-1.1.1-.5.2-1.1.2-1.7v-7.3h2.2v7.2c0,1.1-.1,2-.3,2.7-.2.7-.5,1.3-1,1.8-.4.5-.9.8-1.5,1-.6.2-1.3.3-2,.3s-1.4-.1-2-.3-1.1-.6-1.5-1c-.4-.5-.7-1.1-1-1.8-.2-.7-.3-1.6-.3-2.7v-7.2Z"/>
      <path class="st1" d="M90.9,136.4l-2.8-5h-2v5h-2.3v-12.8h4.3c.7,0,1.3,0,1.9.2.6.1,1.1.3,1.5.6.4.3.7.7,1,1.2.2.5.4,1.1.4,1.8s-.2,1.8-.7,2.4c-.5.6-1.1,1-1.8,1.3l3,5.3h-2.5ZM86.2,129.6h1.8c.9,0,1.5-.2,2-.5.5-.4.7-.9.7-1.6s-.2-1.3-.7-1.5c-.5-.3-1.1-.4-2-.4h-1.8v4.2Z"/>
      <path class="st1" d="M102.6,136.4l-2.8-5h-2v5h-2.3v-12.8h4.3c.7,0,1.3,0,1.9.2.6.1,1.1.3,1.5.6.4.3.7.7,1,1.2.2.5.4,1.1.4,1.8s-.2,1.8-.7,2.4c-.5.6-1.1,1-1.8,1.3l3,5.3h-2.5ZM97.9,129.6h1.8c.9,0,1.5-.2,2-.5.5-.4.7-.9.7-1.6s-.2-1.3-.7-1.5c-.5-.3-1.1-.4-2-.4h-1.8v4.2Z"/>
      <path class="st1" d="M107.3,123.6h7.7v1.9h-5.4v3.3h4.6v1.9h-4.6v3.8h5.6v1.9h-7.9v-12.8Z"/>
      <path class="st1" d="M117.8,123.6h2.3l4,7.2,1.3,2.7h0c0-.7-.1-1.4-.2-2.1,0-.8-.1-1.5-.1-2.2v-5.5h2.2v12.8h-2.3l-4-7.2-1.3-2.7h0c0,.7.1,1.4.2,2.1,0,.7.1,1.5.1,2.2v5.6h-2.2v-12.8Z"/>
      <path class="st1" d="M133.2,125.5h-3.7v-1.9h9.7v1.9h-3.7v10.9h-2.3v-10.9Z"/>
      <path class="st1" d="M41.1,154.7h-4.3l-1,3.5h-2.3l4.2-12.8h2.7l4.2,12.8h-2.4l-1-3.5ZM40.6,152.9l-.4-1.6c-.2-.7-.4-1.4-.6-2.1-.2-.7-.4-1.4-.6-2.1h0c-.2.7-.4,1.4-.5,2.1-.2.7-.4,1.4-.6,2.1l-.4,1.6h3.3Z"/>
      <path class="st1" d="M46.1,145.4h3.4c2,0,3.5.5,4.6,1.6,1.1,1.1,1.6,2.6,1.6,4.7s-.1,2-.4,2.8c-.3.8-.7,1.5-1.2,2-.5.5-1.2.9-1.9,1.2s-1.6.4-2.5.4h-3.5v-12.8ZM49.4,156.3c1.3,0,2.3-.4,3-1.1s1-1.9,1-3.5-.4-2.7-1.1-3.4c-.7-.7-1.7-1.1-3-1.1h-1v9.1h1Z"/>
      <path class="st1" d="M56.4,145.4h2.4l1.8,6.4c.2.7.4,1.4.6,2.1s.4,1.3.6,2.1h0c.2-.7.4-1.4.6-2.1.2-.7.3-1.3.5-2.1l1.8-6.4h2.3l-4,12.8h-2.7l-4-12.8Z"/>
      <path class="st1" d="M68.6,145.4h2.3v12.8h-2.3v-12.8Z"/>
      <path class="st1" d="M74.5,155c.5.4,1,.8,1.6,1,.6.3,1.2.4,1.8.4s1.3-.1,1.7-.4.6-.7.6-1.2,0-.5-.1-.7-.2-.3-.4-.5c-.2-.1-.4-.3-.6-.4-.2-.1-.5-.2-.8-.4l-1.8-.8c-.3-.1-.6-.3-.9-.5-.3-.2-.6-.4-.8-.7-.2-.3-.4-.6-.6-1-.1-.4-.2-.8-.2-1.2s.1-1,.3-1.4c.2-.4.5-.8.9-1.1.4-.3.8-.6,1.4-.8.5-.2,1.1-.3,1.7-.3s1.5.1,2.1.4,1.3.7,1.8,1.2l-1.2,1.4c-.4-.3-.8-.6-1.3-.8-.4-.2-.9-.3-1.5-.3s-1.1.1-1.5.4c-.4.3-.5.6-.5,1.1s0,.5.2.6.3.3.4.5c.2.1.4.3.7.4.2.1.5.2.8.3l1.7.7c.4.2.7.3,1,.5.3.2.6.4.8.7s.4.6.5.9c.1.4.2.8.2,1.2s-.1,1-.3,1.5c-.2.5-.5.9-.9,1.2-.4.3-.9.6-1.4.8-.6.2-1.2.3-1.9.3s-1.7-.2-2.5-.5c-.8-.3-1.5-.8-2.1-1.4l1.3-1.5Z"/>
      <path class="st1" d="M89.7,158.4c-.8,0-1.6-.2-2.3-.5-.7-.3-1.3-.7-1.8-1.3-.5-.6-.9-1.3-1.2-2.1-.3-.8-.4-1.8-.4-2.8s.1-2,.4-2.8c.3-.8.7-1.5,1.2-2.1.5-.6,1.1-1,1.8-1.3.7-.3,1.5-.4,2.3-.4s1.6.2,2.3.4c.7.3,1.3.7,1.8,1.3.5.6.9,1.2,1.2,2.1s.4,1.7.4,2.8-.1,2-.4,2.8c-.3.8-.7,1.5-1.2,2.1-.5.6-1.1,1-1.8,1.3-.7.3-1.5.5-2.3.5ZM89.7,156.4c.5,0,1-.1,1.4-.3s.8-.5,1-.9c.3-.4.5-.9.7-1.5.2-.6.2-1.2.2-1.9,0-1.4-.3-2.6-.9-3.4-.6-.8-1.4-1.2-2.4-1.2s-1.8.4-2.4,1.2c-.6.8-.9,1.9-.9,3.4s0,1.4.2,1.9c.2.6.4,1.1.7,1.5.3.4.6.7,1,.9.4.2.9.3,1.4.3Z"/>
      <path class="st1" d="M104.9,158.2l-2.8-5h-2v5h-2.3v-12.8h4.3c.7,0,1.3,0,1.9.2.6.1,1.1.3,1.5.6.4.3.7.7,1,1.2.2.5.4,1.1.4,1.8s-.2,1.8-.7,2.4c-.5.6-1.1,1-1.8,1.3l3,5.3h-2.5ZM100.2,151.4h1.8c.9,0,1.5-.2,2-.5.5-.4.7-.9.7-1.6s-.2-1.3-.7-1.5c-.5-.3-1.1-.4-2-.4h-1.8v4.2Z"/>
      <path class="st1" d="M109.6,145.4h2.3v12.8h-2.3v-12.8Z"/>
      <path class="st1" d="M115.1,145.4h7.7v1.9h-5.4v3.3h4.6v1.9h-4.6v3.8h5.6v1.9h-7.9v-12.8Z"/>
      <path class="st1" d="M126.1,155c.5.4,1,.8,1.6,1,.6.3,1.2.4,1.8.4s1.3-.1,1.7-.4.6-.7.6-1.2,0-.5-.1-.7-.2-.3-.4-.5-.4-.3-.6-.4-.5-.2-.8-.4l-1.8-.8c-.3-.1-.6-.3-.9-.5-.3-.2-.6-.4-.8-.7-.2-.3-.4-.6-.6-1-.2-.4-.2-.8-.2-1.2s.1-1,.3-1.4.5-.8.9-1.1c.4-.3.8-.6,1.4-.8.5-.2,1.1-.3,1.7-.3s1.5.1,2.1.4c.7.3,1.3.7,1.8,1.2l-1.2,1.4c-.4-.3-.8-.6-1.3-.8-.4-.2-.9-.3-1.5-.3s-1.1.1-1.5.4c-.4.3-.5.6-.5,1.1s0,.5.2.6c.1.2.3.3.4.5.2.1.4.3.7.4.2.1.5.2.8.3l1.7.7c.4.2.7.3,1,.5.3.2.6.4.8.7s.4.6.5.9c.1.4.2.8.2,1.2s-.1,1-.3,1.5c-.2.5-.5.9-.9,1.2-.4.3-.9.6-1.4.8-.6.2-1.2.3-1.9.3s-1.7-.2-2.5-.5c-.8-.3-1.5-.8-2.1-1.4l1.3-1.5Z"/>
    </g>
    <g class="st7">
      <path class="st1" d="M27.4,109.6h10.7v2.7h-7.6v4.6h6.4v2.7h-6.4v5.3h7.9v2.7h-11v-17.8Z"/>
      <path class="st1" d="M42.1,109.6h3.2v15.2h7.4v2.7h-10.6v-17.8Z"/>
      <path class="st1" d="M55.8,109.6h10.7v2.7h-7.6v4.6h6.4v2.7h-6.4v5.3h7.9v2.7h-11v-17.8Z"/>
      <path class="st1" d="M68.1,109.6h3.4l2.5,9c.3,1,.5,2,.8,2.9.2.9.5,1.9.8,2.9h.1c.3-1,.6-2,.8-2.9.2-.9.5-1.9.7-2.9l2.5-9h3.2l-5.5,17.8h-3.7l-5.6-17.8Z"/>
      <path class="st1" d="M92.9,122.6h-6l-1.4,4.8h-3.2l5.8-17.8h3.7l5.8,17.8h-3.3l-1.4-4.8ZM92.2,120.1l-.6-2.2c-.3-.9-.6-1.9-.8-2.9-.3-1-.5-2-.8-3h-.1c-.3,1-.5,2-.8,3-.3,1-.5,2-.8,2.9l-.6,2.2h4.6Z"/>
      <path class="st1" d="M102.3,112.2h-5.2v-2.7h13.5v2.7h-5.2v15.2h-3.2v-15.2Z"/>
      <path class="st1" d="M113.6,109.6h10.7v2.7h-7.6v4.6h6.4v2.7h-6.4v5.3h7.9v2.7h-11v-17.8Z"/>
      <path class="st1" d="M128.3,109.6h4.8c2.7,0,4.9.7,6.4,2.2,1.5,1.5,2.3,3.7,2.3,6.6s-.2,2.8-.6,3.9c-.4,1.1-1,2.1-1.7,2.8s-1.6,1.3-2.7,1.7-2.2.6-3.6.6h-4.9v-17.8ZM132.8,124.8c1.8,0,3.2-.5,4.2-1.6,1-1,1.5-2.7,1.5-4.9s-.5-3.8-1.5-4.8c-1-1-2.4-1.5-4.2-1.5h-1.4v12.7h1.4Z"/>
      <path class="st1" d="M57.5,144.4h-6l-1.4,4.8h-3.2l5.8-17.8h3.7l5.8,17.8h-3.3l-1.4-4.8ZM56.8,141.9l-.6-2.2c-.3-.9-.6-1.9-.8-2.9-.3-1-.5-2-.8-3h-.1c-.3,1-.5,2-.8,3-.3,1-.5,2-.8,2.9l-.6,2.2h4.6Z"/>
      <path class="st1" d="M64.5,131.4h3.2v15.2h7.4v2.7h-10.6v-17.8Z"/>
      <path class="st1" d="M78.2,131.4h10.7v2.7h-7.6v4.6h6.4v2.7h-6.4v5.3h7.9v2.7h-11v-17.8Z"/>
      <path class="st1" d="M102.6,149.2l-3.8-7h-2.7v7h-3.2v-17.8h6c.9,0,1.8,0,2.6.3.8.2,1.5.5,2.1.9.6.4,1,1,1.4,1.6.3.7.5,1.5.5,2.5s-.3,2.5-1,3.3c-.6.8-1.5,1.4-2.6,1.8l4.3,7.4h-3.5ZM96,139.7h2.5c1.2,0,2.1-.3,2.8-.8.6-.5,1-1.3,1-2.3s-.3-1.8-1-2.2c-.6-.4-1.6-.6-2.8-.6h-2.5v5.8Z"/>
      <path class="st1" d="M112.2,134.1h-5.2v-2.7h13.5v2.7h-5.2v15.2h-3.2v-15.2Z"/>
      <path class="st1" d="M51,169.7l-2.2-4h-1.6v4h-1.8v-10.3h3.5c.5,0,1,0,1.5.2.5.1.9.3,1.2.5.3.2.6.5.8.9.2.4.3.9.3,1.4s-.2,1.4-.6,1.9c-.4.5-.9.8-1.5,1l2.5,4.3h-2ZM47.2,164.2h1.5c.7,0,1.2-.1,1.6-.4.4-.3.6-.7.6-1.3s-.2-1-.6-1.2c-.4-.2-.9-.3-1.6-.3h-1.5v3.4Z"/>
      <path class="st1" d="M54.8,159.4h6.2v1.5h-4.4v2.6h3.7v1.5h-3.7v3h4.5v1.5h-6.4v-10.3Z"/>
      <path class="st1" d="M68.1,166.9h-3.5l-.8,2.8h-1.9l3.4-10.3h2.1l3.4,10.3h-1.9l-.8-2.8ZM67.7,165.4l-.4-1.3c-.2-.5-.3-1.1-.5-1.7-.2-.6-.3-1.2-.4-1.7h0c-.1.6-.3,1.2-.4,1.7s-.3,1.1-.5,1.7l-.4,1.3h2.6Z"/>
      <path class="st1" d="M72.1,159.4h2.8c1.6,0,2.8.4,3.7,1.3s1.3,2.1,1.3,3.8-.1,1.6-.3,2.3c-.2.7-.6,1.2-1,1.6-.4.4-.9.8-1.5,1-.6.2-1.3.3-2.1.3h-2.9v-10.3ZM74.7,168.2c1,0,1.9-.3,2.4-.9.6-.6.8-1.5.8-2.8s-.3-2.2-.9-2.8c-.6-.6-1.4-.9-2.4-.9h-.8v7.3h.8Z"/>
      <path class="st1" d="M85.2,159.4h2l1.9,5.1.7,2h0l.7-2,1.8-5.1h2v10.3h-1.7v-4.7c0-.2,0-.5,0-.8,0-.3,0-.6,0-.9,0-.3,0-.6,0-.9,0-.3,0-.5,0-.8h0l-.8,2.3-1.8,4.7h-.9l-1.8-4.7-.8-2.3h0c0,.2,0,.5,0,.8,0,.3,0,.6,0,.9,0,.3,0,.6,0,.9,0,.3,0,.5,0,.8v4.7h-1.7v-10.3Z"/>
      <path class="st1" d="M100.9,169.9c-.7,0-1.3-.1-1.8-.4-.6-.2-1-.6-1.4-1.1-.4-.5-.7-1-.9-1.7s-.3-1.4-.3-2.3.1-1.6.3-2.2.5-1.2.9-1.7c.4-.5.9-.8,1.4-1,.6-.2,1.2-.4,1.8-.4s1.3.1,1.8.4c.6.2,1,.6,1.4,1,.4.5.7,1,.9,1.7.2.7.3,1.4.3,2.2s-.1,1.6-.3,2.3c-.2.7-.5,1.2-.9,1.7s-.9.8-1.4,1.1c-.6.2-1.2.4-1.8.4ZM100.9,168.3c.4,0,.8,0,1.1-.3.3-.2.6-.4.8-.8.2-.3.4-.7.5-1.2.1-.5.2-1,.2-1.6,0-1.2-.2-2.1-.7-2.7s-1.1-1-1.9-1-1.5.3-1.9,1-.7,1.6-.7,2.7,0,1.1.2,1.6c.1.5.3.9.5,1.2.2.3.5.6.8.8.3.2.7.3,1.1.3Z"/>
      <path class="st1" d="M113.1,169.7l-2.2-4h-1.6v4h-1.8v-10.3h3.5c.5,0,1,0,1.5.2.5.1.9.3,1.2.5s.6.5.8.9c.2.4.3.9.3,1.4s-.2,1.4-.6,1.9c-.4.5-.9.8-1.5,1l2.5,4.3h-2ZM109.4,164.2h1.5c.7,0,1.2-.1,1.6-.4.4-.3.6-.7.6-1.3s-.2-1-.6-1.2c-.4-.2-.9-.3-1.6-.3h-1.5v3.4Z"/>
      <path class="st1" d="M117,159.4h6.2v1.5h-4.4v2.6h3.7v1.5h-3.7v3h4.5v1.5h-6.4v-10.3Z"/>
      <path class="st1" d="M44.1,171.2v-.8h80v.8H44.1Z"/>
    </g>
    <g class="st7">
      <path class="st1" d="M25.7,109.6h3.2v17.8h-3.2v-17.8Z"/>
      <path class="st1" d="M33.4,109.6h3.5l3.2,8.8,1.2,3.4h.1l1.1-3.4,3.2-8.8h3.5v17.8h-3v-8.2c0-.4,0-.9,0-1.4,0-.5,0-1,0-1.5,0-.5,0-1,.1-1.5s0-.9.1-1.3h-.1l-1.4,4.1-3.1,8.1h-1.5l-3.1-8.1-1.4-4.1h-.1c0,.4,0,.9.1,1.3s0,1,.1,1.5,0,1,.1,1.5c0,.5,0,.9,0,1.4v8.2h-2.9v-17.8Z"/>
      <path class="st1" d="M53.7,109.6h3.5l3.2,8.8,1.2,3.4h.1l1.1-3.4,3.2-8.8h3.5v17.8h-3v-8.2c0-.4,0-.9,0-1.4,0-.5,0-1,0-1.5,0-.5,0-1,.1-1.5s0-.9.1-1.3h-.1l-1.4,4.1-3.1,8.1h-1.5l-3.1-8.1-1.4-4.1h-.1c0,.4,0,.9.1,1.3s0,1,.1,1.5,0,1,.1,1.5c0,.5,0,.9,0,1.4v8.2h-2.9v-17.8Z"/>
      <path class="st1" d="M74,109.6h3.2v17.8h-3.2v-17.8Z"/>
      <path class="st1" d="M81.7,109.6h3.2l5.6,10,1.8,3.8h.1c0-.9-.2-1.9-.3-3,0-1.1-.2-2.1-.2-3.1v-7.7h3v17.8h-3.2l-5.6-10-1.8-3.8h-.1c0,.9.2,1.9.3,3,0,1,.1,2.1.1,3.1v7.8h-3v-17.8Z"/>
      <path class="st1" d="M99.6,109.6h10.7v2.7h-7.6v4.6h6.4v2.7h-6.4v5.3h7.9v2.7h-11v-17.8Z"/>
      <path class="st1" d="M114.3,109.6h3.2l5.6,10,1.8,3.8h.1c0-.9-.2-1.9-.3-3,0-1.1-.2-2.1-.2-3.1v-7.7h3v17.8h-3.2l-5.6-10-1.8-3.8h-.1c0,.9.2,1.9.3,3s.2,2.1.2,3.1v7.8h-3v-17.8Z"/>
      <path class="st1" d="M135.7,112.2h-5.2v-2.7h13.5v2.7h-5.2v15.2h-3.2v-15.2Z"/>
      <path class="st1" d="M57.5,144.4h-6l-1.4,4.8h-3.2l5.8-17.8h3.7l5.8,17.8h-3.3l-1.4-4.8ZM56.8,141.9l-.6-2.2c-.3-.9-.6-1.9-.8-2.9-.3-1-.5-2-.8-3h-.1c-.3,1-.5,2-.8,3-.3,1-.5,2-.8,2.9l-.6,2.2h4.6Z"/>
      <path class="st1" d="M64.5,131.4h3.2v15.2h7.4v2.7h-10.6v-17.8Z"/>
      <path class="st1" d="M78.2,131.4h10.7v2.7h-7.6v4.6h6.4v2.7h-6.4v5.3h7.9v2.7h-11v-17.8Z"/>
      <path class="st1" d="M102.6,149.2l-3.8-7h-2.7v7h-3.2v-17.8h6c.9,0,1.8,0,2.6.3.8.2,1.5.5,2.1.9.6.4,1,1,1.4,1.6.3.7.5,1.5.5,2.5s-.3,2.5-1,3.3c-.6.8-1.5,1.4-2.6,1.8l4.3,7.4h-3.5ZM96,139.7h2.5c1.2,0,2.1-.3,2.8-.8.6-.5,1-1.3,1-2.3s-.3-1.8-1-2.2c-.6-.4-1.6-.6-2.8-.6h-2.5v5.8Z"/>
      <path class="st1" d="M112.2,134.1h-5.2v-2.7h13.5v2.7h-5.2v15.2h-3.2v-15.2Z"/>
      <path class="st1" d="M51,169.7l-2.2-4h-1.6v4h-1.8v-10.3h3.5c.5,0,1,0,1.5.2.5.1.9.3,1.2.5.3.2.6.5.8.9.2.4.3.9.3,1.4s-.2,1.4-.6,1.9c-.4.5-.9.8-1.5,1l2.5,4.3h-2ZM47.2,164.2h1.5c.7,0,1.2-.1,1.6-.4.4-.3.6-.7.6-1.3s-.2-1-.6-1.2c-.4-.2-.9-.3-1.6-.3h-1.5v3.4Z"/>
      <path class="st1" d="M54.8,159.4h6.2v1.5h-4.4v2.6h3.7v1.5h-3.7v3h4.5v1.5h-6.4v-10.3Z"/>
      <path class="st1" d="M68.1,166.9h-3.5l-.8,2.8h-1.9l3.4-10.3h2.1l3.4,10.3h-1.9l-.8-2.8ZM67.7,165.4l-.4-1.3c-.2-.5-.3-1.1-.5-1.7-.2-.6-.3-1.2-.4-1.7h0c-.1.6-.3,1.2-.4,1.7s-.3,1.1-.5,1.7l-.4,1.3h2.6Z"/>
      <path class="st1" d="M72.1,159.4h2.8c1.6,0,2.8.4,3.7,1.3s1.3,2.1,1.3,3.8-.1,1.6-.3,2.3c-.2.7-.6,1.2-1,1.6-.4.4-.9.8-1.5,1-.6.2-1.3.3-2.1.3h-2.9v-10.3ZM74.7,168.2c1,0,1.9-.3,2.4-.9.6-.6.8-1.5.8-2.8s-.3-2.2-.9-2.8c-.6-.6-1.4-.9-2.4-.9h-.8v7.3h.8Z"/>
      <path class="st1" d="M85.2,159.4h2l1.9,5.1.7,2h0l.7-2,1.8-5.1h2v10.3h-1.7v-4.7c0-.2,0-.5,0-.8,0-.3,0-.6,0-.9,0-.3,0-.6,0-.9,0-.3,0-.5,0-.8h0l-.8,2.3-1.8,4.7h-.9l-1.8-4.7-.8-2.3h0c0,.2,0,.5,0,.8,0,.3,0,.6,0,.9,0,.3,0,.6,0,.9,0,.3,0,.5,0,.8v4.7h-1.7v-10.3Z"/>
      <path class="st1" d="M100.9,169.9c-.7,0-1.3-.1-1.8-.4-.6-.2-1-.6-1.4-1.1-.4-.5-.7-1-.9-1.7s-.3-1.4-.3-2.3.1-1.6.3-2.2.5-1.2.9-1.7c.4-.5.9-.8,1.4-1,.6-.2,1.2-.4,1.8-.4s1.3.1,1.8.4c.6.2,1,.6,1.4,1,.4.5.7,1,.9,1.7.2.7.3,1.4.3,2.2s-.1,1.6-.3,2.3c-.2.7-.5,1.2-.9,1.7s-.9.8-1.4,1.1c-.6.2-1.2.4-1.8.4ZM100.9,168.3c.4,0,.8,0,1.1-.3.3-.2.6-.4.8-.8.2-.3.4-.7.5-1.2.1-.5.2-1,.2-1.6,0-1.2-.2-2.1-.7-2.7s-1.1-1-1.9-1-1.5.3-1.9,1-.7,1.6-.7,2.7,0,1.1.2,1.6c.1.5.3.9.5,1.2.2.3.5.6.8.8.3.2.7.3,1.1.3Z"/>
      <path class="st1" d="M113.1,169.7l-2.2-4h-1.6v4h-1.8v-10.3h3.5c.5,0,1,0,1.5.2.5.1.9.3,1.2.5s.6.5.8.9c.2.4.3.9.3,1.4s-.2,1.4-.6,1.9c-.4.5-.9.8-1.5,1l2.5,4.3h-2ZM109.4,164.2h1.5c.7,0,1.2-.1,1.6-.4.4-.3.6-.7.6-1.3s-.2-1-.6-1.2c-.4-.2-.9-.3-1.6-.3h-1.5v3.4Z"/>
      <path class="st1" d="M117,159.4h6.2v1.5h-4.4v2.6h3.7v1.5h-3.7v3h4.5v1.5h-6.4v-10.3Z"/>
      <path class="st1" d="M44.1,171.2v-.8h80v.8H44.1Z"/>
    </g>
    <g class="st7">
      <path class="st1" d="M28.1,120.5h5.7c.9,0,1.8,0,2.5.2.8.2,1.4.4,2,.7.6.3,1,.8,1.3,1.3.3.6.5,1.3.5,2.1s-.2,1.6-.7,2.4c-.5.7-1.3,1.2-2.3,1.5h0c1.3.3,2.3.8,3,1.5.7.7,1,1.6,1,2.8s-.2,1.7-.5,2.3c-.3.7-.8,1.2-1.4,1.6-.6.4-1.3.8-2.2,1-.8.2-1.7.3-2.7.3h-6.2v-17.8ZM33.5,127.9c1.3,0,2.2-.2,2.7-.7s.8-1.1.8-1.9-.3-1.4-.9-1.8c-.6-.4-1.5-.5-2.6-.5h-2.3v4.9h2.3ZM33.9,135.9c1.3,0,2.3-.2,3-.7.7-.5,1.1-1.2,1.1-2.3s-.3-1.6-1-2.1c-.7-.4-1.7-.7-3.1-.7h-2.7v5.7h2.7Z"/>
      <path class="st1" d="M44.3,120.5h3.2v10.2c0,1,0,1.8.3,2.4.2.7.4,1.2.7,1.6s.7.7,1.1.9c.4.2.9.3,1.5.3s1,0,1.5-.3c.5-.2.8-.5,1.2-.9s.6-.9.8-1.6.3-1.5.3-2.4v-10.2h3v10c0,1.5-.2,2.7-.5,3.7-.3,1-.8,1.9-1.3,2.5-.6.7-1.3,1.1-2.1,1.4s-1.8.5-2.8.5-2-.2-2.8-.5-1.5-.8-2.1-1.4-1-1.5-1.4-2.5c-.3-1-.5-2.3-.5-3.7v-10Z"/>
      <path class="st1" d="M62.2,120.5h3.2v15.2h7.4v2.7h-10.6v-17.8Z"/>
      <path class="st1" d="M75.9,120.5h3.2v15.2h7.4v2.7h-10.6v-17.8Z"/>
      <path class="st1" d="M89.6,120.5h10.7v2.7h-7.6v4.6h6.4v2.7h-6.4v5.3h7.9v2.7h-11v-17.8Z"/>
      <path class="st1" d="M107.8,123.2h-5.2v-2.7h13.5v2.7h-5.2v15.2h-3.2v-15.2Z"/>
      <path class="st1" d="M119.1,120.5h3.2v17.8h-3.2v-17.8Z"/>
      <path class="st1" d="M126.8,120.5h3.2l5.6,10,1.8,3.8h.1c0-.9-.2-1.9-.3-3,0-1.1-.2-2.1-.2-3.1v-7.7h3v17.8h-3.2l-5.6-10-1.8-3.8h-.1c0,.9.2,1.9.3,3s.2,2.1.2,3.1v7.8h-3v-17.8Z"/>
      <path class="st9" d="M54.5,158.8l-2.2-4h-1.6v4h-1.8v-10.3h3.5c.5,0,1,0,1.5.2.5.1.9.3,1.2.5.3.2.6.5.8.9.2.4.3.9.3,1.4s-.2,1.4-.6,1.9c-.4.5-.9.8-1.5,1l2.5,4.3h-2ZM50.7,153.3h1.5c.7,0,1.2-.1,1.6-.4.4-.3.6-.7.6-1.3s-.2-1-.6-1.2c-.4-.2-.9-.3-1.6-.3h-1.5v3.4Z"/>
      <path class="st9" d="M57.5,154.9c0-.6.1-1.2.3-1.7.2-.5.5-.9.8-1.3.3-.3.7-.6,1.1-.8.4-.2.9-.3,1.3-.3s1,0,1.4.3c.4.2.7.4,1,.8s.5.7.6,1.2c.1.5.2.9.2,1.5s0,.6,0,.9h-4.9c0,.7.3,1.2.7,1.6.4.4.9.6,1.6.6s.6,0,.9-.1c.3,0,.6-.2.9-.4l.6,1.1c-.4.2-.8.4-1.2.6-.5.2-.9.2-1.4.2s-1,0-1.5-.3-.9-.4-1.2-.8c-.3-.3-.6-.8-.8-1.3-.2-.5-.3-1.1-.3-1.7ZM62.7,154.2c0-.6-.1-1.1-.4-1.4s-.7-.5-1.2-.5-.9.2-1.2.5c-.3.3-.6.8-.6,1.5h3.4Z"/>
      <path class="st9" d="M65.5,156.7c0-.8.4-1.5,1.1-1.9.7-.5,1.9-.8,3.5-.9,0-.2,0-.4,0-.6,0-.2-.1-.3-.2-.5s-.3-.3-.4-.3c-.2,0-.4-.1-.7-.1-.4,0-.8,0-1.1.2-.4.1-.7.3-1,.5l-.7-1.2c.4-.3.9-.5,1.4-.7.5-.2,1.1-.3,1.7-.3,1,0,1.7.3,2.2.9.5.6.7,1.4.7,2.5v4.6h-1.5v-.9h-.2c-.3.3-.7.5-1.1.7-.4.2-.8.3-1.3.3-.7,0-1.2-.2-1.7-.6-.4-.4-.6-1-.6-1.6ZM67.2,156.5c0,.3.1.6.3.8s.5.2.8.2.6,0,.9-.2c.3-.1.5-.4.8-.6v-1.7c-.5,0-1,.1-1.3.3-.4.1-.6.2-.9.4-.2.1-.4.3-.5.4,0,.2-.1.3-.1.5Z"/>
      <path class="st9" d="M73.6,154.9c0-.6,0-1.2.3-1.7s.4-.9.7-1.3c.3-.3.7-.6,1-.8.4-.2.8-.3,1.2-.3s.8,0,1.1.2c.3.2.6.4.9.6v-1.2c0,0,0-2.8,0-2.8h1.8v11.1h-1.5v-.8h-.2c-.3.3-.6.5-1,.7s-.8.3-1.2.3c-1,0-1.8-.4-2.3-1.1s-.9-1.7-.9-3ZM75.5,154.9c0,.8.1,1.5.4,1.9s.7.7,1.3.7,1.1-.3,1.6-.9v-3.6c-.3-.2-.5-.4-.8-.5s-.5-.1-.8-.1c-.5,0-.9.2-1.3.7-.3.4-.5,1.1-.5,1.9Z"/>
      <path class="st9" d="M86.2,151h1.5v1.1h.2c.3-.3.7-.6,1.1-.9.4-.2.8-.4,1.3-.4s1,.1,1.4.4c.3.2.6.6.8,1,.4-.4.8-.7,1.1-1,.4-.3.8-.4,1.3-.4.8,0,1.4.3,1.8.8.4.5.6,1.3.6,2.3v4.9h-1.8v-4.6c0-.6,0-1.1-.3-1.4-.2-.3-.5-.4-.9-.4s-1,.3-1.6,1v5.4h-1.8v-4.6c0-.6,0-1.1-.3-1.4-.2-.3-.5-.4-.9-.4s-1,.3-1.6,1v5.4h-1.8v-7.7Z"/>
      <path class="st9" d="M98.9,154.9c0-.6,0-1.2.3-1.7.2-.5.5-.9.8-1.3.3-.3.7-.6,1.2-.8.4-.2.9-.3,1.4-.3s.9,0,1.4.3.8.4,1.2.8c.3.3.6.8.8,1.3.2.5.3,1.1.3,1.7s-.1,1.2-.3,1.7c-.2.5-.5.9-.8,1.3s-.7.6-1.2.8c-.4.2-.9.3-1.4.3s-.9,0-1.4-.3c-.4-.2-.8-.4-1.2-.8-.3-.3-.6-.8-.8-1.3-.2-.5-.3-1.1-.3-1.7ZM100.8,154.9c0,.8.2,1.4.5,1.9s.8.7,1.3.7,1-.2,1.3-.7.5-1.1.5-1.9-.2-1.4-.5-1.9c-.3-.5-.8-.7-1.3-.7s-1,.2-1.3.7c-.3.5-.5,1.1-.5,1.9Z"/>
      <path class="st9" d="M108.1,151h1.5v1.4h.2c.3-.5.6-.9,1-1.2s.8-.4,1.2-.4.7,0,.9.2l-.3,1.6c-.1,0-.3,0-.4,0-.1,0-.3,0-.4,0-.3,0-.6.1-1,.4-.3.2-.6.6-.9,1.2v4.7h-1.8v-7.7Z"/>
      <path class="st9" d="M113.3,154.9c0-.6,0-1.2.3-1.7.2-.5.5-.9.8-1.3.3-.3.7-.6,1.1-.8.4-.2.9-.3,1.3-.3s1,0,1.4.3c.4.2.7.4,1,.8.3.3.5.7.6,1.2.1.5.2.9.2,1.5s0,.6,0,.9h-4.9c0,.7.3,1.2.7,1.6.4.4.9.6,1.6.6s.6,0,.9-.1c.3,0,.6-.2.9-.4l.6,1.1c-.4.2-.8.4-1.2.6-.5.2-.9.2-1.4.2s-1,0-1.5-.3-.9-.4-1.2-.8-.6-.8-.8-1.3c-.2-.5-.3-1.1-.3-1.7ZM118.5,154.2c0-.6-.1-1.1-.4-1.4-.3-.3-.7-.5-1.2-.5s-.9.2-1.2.5-.6.8-.6,1.5h3.4Z"/>
      <path class="st9" d="M47.6,160.3v-.8h73v.8H47.6Z"/>
    </g>
  </g>
  <g id="NTAS_Logo">
    <g class="st4">
      <path class="st1" d="M84.7,20.9h-4v26.4h-3l-18.8-20.3v17.6h4v2.7h-11.2v-2.7h3.9v-23.6h-3.9v-2.7h9.3v2.7l16.4,18v-18h-4.1v-2.7h11.4v2.7Z"/>
      <path class="st1" d="M113.1,26.3h-3v-4h-6.9v22.2h4v2.7h-13.8v-2.7h4v-22.2h-6.9v4h-3v-9.5h3v1.4h19.6v-1.4h3v9.5Z"/>
      <path class="st1" d="M139.7,47.2h-11.2v-2.7h2.7l-2.7-7.1h-8.6l-2.5,7.1h2.5v2.7h-8v-2.7h2.5l9.7-26.9h3.1l10.2,26.9h2.4v2.7ZM127.5,34.7l-3.3-9.2h0l-3.2,9.2h6.6Z"/>
      <path class="st1" d="M161.6,39.5c0,1.6-.4,3-1.1,4.3s-1.8,2.3-3.1,3-2.8,1.1-4.5,1.1c-2.6,0-4.7-.7-6.5-2.2v2.3h-3v-10h3v3.5c.8,1.1,1.7,2,2.8,2.7,1.1.7,2.2,1,3.3,1s2-.4,2.8-1.2,1.2-1.8,1.2-2.9-.4-2.4-1.2-3-2.2-1.6-4.4-2.9c-2.1-1.2-3.8-2.4-5-3.6-1-1-1.7-2-2.1-2.9-.4-.9-.6-2.1-.6-3.4s.4-2.8,1.1-4c.7-1.1,1.7-2,3-2.7,1.3-.6,2.8-1,4.5-1s4.2.6,5.8,1.7v-2.1h3v9.1h-3v-3.3c-1.4-1.6-3.1-2.5-4.9-2.5s-1.5.2-2.2.5c-.7.3-1.2.8-1.6,1.3s-.6,1.2-.6,1.8c0,1.2.4,2.2,1.3,2.8.8.6,2.5,1.6,4.9,3,2.4,1.3,4.2,2.7,5.4,4.1s1.8,3.2,1.8,5.4Z"/>
    </g>
    <g>
      <path class="st1" d="M10.1,57.7h1.9l3.2,5.8,1.1,2.2h0c0-.5,0-1.1-.1-1.7s0-1.2,0-1.8v-4.5h1.7v10.3h-1.9l-3.2-5.8-1.1-2.2h0c0,.5,0,1.1.1,1.7,0,.6,0,1.2,0,1.8v4.5h-1.8v-10.3Z"/>
      <path class="st1" d="M25.2,65.2h-3.5l-.8,2.8h-1.9l3.4-10.3h2.1l3.4,10.3h-1.9l-.8-2.8ZM24.8,63.8l-.4-1.3c-.2-.5-.3-1.1-.5-1.7-.2-.6-.3-1.2-.4-1.7h0c-.1.6-.3,1.2-.4,1.7-.1.6-.3,1.1-.5,1.7l-.4,1.3h2.6Z"/>
      <path class="st1" d="M30.7,59.2h-3v-1.5h7.8v1.5h-3v8.8h-1.8v-8.8Z"/>
      <path class="st1" d="M37.2,57.7h1.8v10.3h-1.8v-10.3Z"/>
      <path class="st1" d="M45.6,68.2c-.7,0-1.3-.1-1.8-.4-.6-.2-1-.6-1.4-1.1-.4-.5-.7-1-.9-1.7s-.3-1.4-.3-2.3.1-1.6.3-2.2.5-1.2.9-1.7c.4-.5.9-.8,1.4-1s1.2-.4,1.8-.4,1.3.1,1.8.4c.6.2,1,.6,1.4,1,.4.5.7,1,.9,1.7s.3,1.4.3,2.2-.1,1.6-.3,2.3-.5,1.2-.9,1.7c-.4.5-.9.8-1.4,1.1-.6.2-1.2.4-1.8.4ZM45.6,66.6c.4,0,.8,0,1.1-.3s.6-.4.8-.8.4-.7.5-1.2.2-1,.2-1.6c0-1.2-.2-2.1-.7-2.7s-1.1-1-1.9-1-1.5.3-1.9,1c-.5.7-.7,1.6-.7,2.7s0,1.1.2,1.6.3.9.5,1.2c.2.3.5.6.8.8.3.2.7.3,1.1.3Z"/>
      <path class="st1" d="M52.3,57.7h1.9l3.2,5.8,1.1,2.2h0c0-.5,0-1.1-.1-1.7s0-1.2,0-1.8v-4.5h1.7v10.3h-1.9l-3.2-5.8-1.1-2.2h0c0,.5,0,1.1.1,1.7,0,.6,0,1.2,0,1.8v4.5h-1.8v-10.3Z"/>
      <path class="st1" d="M67.4,65.2h-3.5l-.8,2.8h-1.9l3.4-10.3h2.1l3.4,10.3h-1.9l-.8-2.8ZM67,63.8l-.4-1.3c-.2-.5-.3-1.1-.5-1.7-.2-.6-.3-1.2-.4-1.7h0c-.1.6-.3,1.2-.4,1.7-.1.6-.3,1.1-.5,1.7l-.4,1.3h2.6Z"/>
      <path class="st1" d="M71.4,57.7h1.8v8.8h4.3v1.5h-6.1v-10.3Z"/>
      <path class="st1" d="M84.6,59.2h-3v-1.5h7.8v1.5h-3v8.8h-1.8v-8.8Z"/>
      <path class="st1" d="M91.1,57.7h6.2v1.5h-4.4v2.6h3.7v1.5h-3.7v3h4.5v1.5h-6.4v-10.3Z"/>
      <path class="st1" d="M105.2,68l-2.2-4h-1.6v4h-1.8v-10.3h3.5c.5,0,1,0,1.5.2.5.1.9.3,1.2.5s.6.5.8.9.3.9.3,1.5-.2,1.4-.6,1.9-.9.8-1.5,1l2.5,4.3h-2ZM101.4,62.5h1.5c.7,0,1.2-.1,1.6-.4.4-.3.6-.7.6-1.3s-.2-1-.6-1.2c-.4-.2-.9-.3-1.6-.3h-1.5v3.4Z"/>
      <path class="st1" d="M114.7,68l-2.2-4h-1.6v4h-1.8v-10.3h3.5c.5,0,1,0,1.5.2.5.1.9.3,1.2.5s.6.5.8.9.3.9.3,1.5-.2,1.4-.6,1.9-.9.8-1.5,1l2.5,4.3h-2ZM110.9,62.5h1.5c.7,0,1.2-.1,1.6-.4.4-.3.6-.7.6-1.3s-.2-1-.6-1.2c-.4-.2-.9-.3-1.6-.3h-1.5v3.4Z"/>
      <path class="st1" d="M122.5,68.2c-.7,0-1.3-.1-1.8-.4-.6-.2-1-.6-1.4-1.1-.4-.5-.7-1-.9-1.7s-.3-1.4-.3-2.3.1-1.6.3-2.2.5-1.2.9-1.7.9-.8,1.4-1,1.2-.4,1.8-.4,1.3.1,1.8.4c.6.2,1,.6,1.4,1s.7,1,.9,1.7.3,1.4.3,2.2-.1,1.6-.3,2.3-.5,1.2-.9,1.7c-.4.5-.9.8-1.4,1.1-.6.2-1.2.4-1.8.4ZM122.5,66.6c.4,0,.8,0,1.1-.3.3-.2.6-.4.8-.8s.4-.7.5-1.2.2-1,.2-1.6c0-1.2-.2-2.1-.7-2.7s-1.1-1-1.9-1-1.5.3-1.9,1-.7,1.6-.7,2.7,0,1.1.2,1.6c.1.5.3.9.5,1.2s.5.6.8.8c.3.2.7.3,1.1.3Z"/>
      <path class="st1" d="M134.8,68l-2.2-4h-1.6v4h-1.8v-10.3h3.5c.5,0,1,0,1.5.2.5.1.9.3,1.2.5s.6.5.8.9.3.9.3,1.5-.2,1.4-.6,1.9-.9.8-1.5,1l2.5,4.3h-2ZM131,62.5h1.5c.7,0,1.2-.1,1.6-.4.4-.3.6-.7.6-1.3s-.2-1-.6-1.2c-.4-.2-.9-.3-1.6-.3h-1.5v3.4Z"/>
      <path class="st1" d="M138.6,57.7h1.8v10.3h-1.8v-10.3Z"/>
      <path class="st1" d="M143.4,65.4c.4.3.8.6,1.3.8.5.2.9.3,1.4.3s1-.1,1.3-.4c.3-.2.5-.6.5-1s0-.4-.1-.5c0-.1-.2-.3-.3-.4s-.3-.2-.5-.3c-.2,0-.4-.2-.6-.3l-1.4-.6c-.3-.1-.5-.2-.7-.4s-.5-.3-.7-.6c-.2-.2-.4-.5-.5-.8-.1-.3-.2-.6-.2-1s0-.8.3-1.1c.2-.4.4-.7.7-.9.3-.3.7-.5,1.1-.6.4-.1.9-.2,1.4-.2s1.2.1,1.7.4,1,.6,1.4,1l-.9,1.2c-.3-.3-.7-.5-1-.6s-.8-.2-1.2-.2-.9.1-1.2.3-.4.5-.4.9,0,.4.1.5c0,.1.2.3.4.4.2.1.3.2.5.3.2,0,.4.2.6.3l1.4.6c.3.1.6.3.8.4.3.2.5.4.7.6.2.2.3.5.4.8.1.3.2.6.2,1s0,.8-.3,1.2-.4.7-.7,1c-.3.3-.7.5-1.2.7s-1,.2-1.6.2-1.4-.1-2-.4c-.6-.3-1.2-.6-1.7-1.1l1.1-1.2Z"/>
      <path class="st1" d="M151.6,57.7h2l1.9,5.1.7,2h0l.7-2,1.8-5.1h2v10.3h-1.7v-4.7c0-.2,0-.5,0-.8,0-.3,0-.6,0-.9,0-.3,0-.6,0-.9,0-.3,0-.5,0-.8h0l-.8,2.3-1.8,4.7h-.9l-1.8-4.7-.8-2.3h0c0,.2,0,.5,0,.8,0,.3,0,.6,0,.9s0,.6,0,.9,0,.5,0,.8v4.7h-1.7v-10.3Z"/>
      <path class="st1" d="M29.5,81.2h-3.5l-.8,2.8h-1.9l3.4-10.3h2.1l3.4,10.3h-1.9l-.8-2.8ZM29.1,79.8l-.4-1.3c-.2-.5-.3-1.1-.5-1.7-.2-.6-.3-1.2-.4-1.7h0c-.1.6-.3,1.2-.4,1.7-.1.6-.3,1.1-.5,1.7l-.4,1.3h2.6Z"/>
      <path class="st1" d="M33.5,73.7h2.8c1.6,0,2.8.4,3.7,1.3.9.9,1.3,2.1,1.3,3.8s-.1,1.6-.3,2.3c-.2.7-.6,1.2-1,1.6-.4.4-.9.8-1.5,1-.6.2-1.3.3-2.1.3h-2.9v-10.3ZM36.1,82.5c1.1,0,1.9-.3,2.4-.9.6-.6.8-1.5.8-2.8s-.3-2.2-.9-2.8c-.6-.6-1.4-.9-2.4-.9h-.8v7.3h.8Z"/>
      <path class="st1" d="M41.8,73.7h1.9l1.4,5.2c.2.6.3,1.1.4,1.7.1.5.3,1.1.5,1.7h0c.2-.6.3-1.2.5-1.7.1-.5.3-1.1.4-1.7l1.4-5.2h1.9l-3.2,10.3h-2.2l-3.2-10.3Z"/>
      <path class="st1" d="M51.6,73.7h1.8v10.3h-1.8v-10.3Z"/>
      <path class="st1" d="M56.4,81.4c.4.3.8.6,1.3.8.5.2.9.3,1.4.3s1-.1,1.3-.4c.3-.2.5-.6.5-1s0-.4-.1-.5c0-.1-.2-.3-.3-.4-.1-.1-.3-.2-.5-.3-.2,0-.4-.2-.6-.3l-1.4-.6c-.3-.1-.5-.2-.7-.4-.2-.2-.5-.3-.7-.6s-.4-.5-.5-.8c-.1-.3-.2-.6-.2-1s0-.8.3-1.1.4-.7.7-.9c.3-.3.7-.5,1.1-.6.4-.1.9-.2,1.4-.2s1.2.1,1.7.4c.6.2,1,.6,1.4,1l-.9,1.2c-.3-.3-.7-.5-1-.6-.4-.2-.8-.2-1.2-.2s-.9.1-1.2.3c-.3.2-.4.5-.4.9s0,.4.1.5c0,.1.2.3.4.4.2.1.3.2.5.3.2,0,.4.2.6.3l1.4.6c.3.1.6.3.8.4.3.2.5.4.7.6.2.2.3.5.4.8.1.3.2.6.2,1s0,.8-.3,1.2c-.2.4-.4.7-.7,1-.3.3-.7.5-1.2.7s-1,.2-1.6.2-1.4-.1-2-.4c-.6-.3-1.2-.6-1.7-1.1l1.1-1.2Z"/>
      <path class="st1" d="M68.7,84.2c-.7,0-1.3-.1-1.8-.4-.6-.2-1-.6-1.4-1.1-.4-.5-.7-1-.9-1.7-.2-.7-.3-1.4-.3-2.3s.1-1.6.3-2.2.5-1.2.9-1.7c.4-.5.9-.8,1.4-1,.6-.2,1.2-.4,1.8-.4s1.3.1,1.8.4c.6.2,1,.6,1.4,1,.4.5.7,1,.9,1.7s.3,1.4.3,2.2-.1,1.6-.3,2.3c-.2.7-.5,1.2-.9,1.7-.4.5-.9.8-1.4,1.1-.6.2-1.2.4-1.8.4ZM68.7,82.6c.4,0,.8,0,1.1-.3.3-.2.6-.4.8-.8s.4-.7.5-1.2c.1-.5.2-1,.2-1.6,0-1.2-.2-2.1-.7-2.7-.5-.7-1.1-1-1.9-1s-1.5.3-1.9,1c-.5.7-.7,1.6-.7,2.7s0,1.1.2,1.6c.1.5.3.9.5,1.2s.5.6.8.8.7.3,1.1.3Z"/>
      <path class="st1" d="M80.9,84l-2.2-4h-1.6v4h-1.8v-10.3h3.5c.5,0,1,0,1.5.2s.9.3,1.2.5.6.5.8.9c.2.4.3.9.3,1.5s-.2,1.4-.6,1.9c-.4.5-.9.8-1.5,1l2.5,4.3h-2ZM77.1,78.5h1.5c.7,0,1.2-.1,1.6-.4.4-.3.6-.7.6-1.3s-.2-1-.6-1.2c-.4-.2-.9-.3-1.6-.3h-1.5v3.4Z"/>
      <path class="st1" d="M86.2,80.2l-3.1-6.5h2l1.1,2.6c.1.4.3.8.4,1.1s.3.7.5,1.1h0c.2-.4.3-.8.5-1.1.2-.4.3-.7.5-1.1l1.1-2.6h1.9l-3.1,6.5v3.8h-1.8v-3.8Z"/>
      <path class="st1" d="M96,81.4c.4.3.8.6,1.3.8s.9.3,1.4.3,1-.1,1.3-.4.5-.6.5-1,0-.4-.1-.5-.2-.3-.3-.4-.3-.2-.5-.3c-.2,0-.4-.2-.6-.3l-1.4-.6c-.3-.1-.5-.2-.7-.4s-.5-.3-.7-.6-.4-.5-.5-.8c-.1-.3-.2-.6-.2-1s0-.8.3-1.1c.2-.4.4-.7.7-.9s.7-.5,1.1-.6c.4-.1.9-.2,1.4-.2s1.2.1,1.7.4c.6.2,1,.6,1.4,1l-.9,1.2c-.3-.3-.7-.5-1-.6s-.8-.2-1.2-.2-.9.1-1.2.3c-.3.2-.4.5-.4.9s0,.4.1.5c0,.1.2.3.4.4s.3.2.5.3c.2,0,.4.2.6.3l1.4.6c.3.1.6.3.8.4.3.2.5.4.7.6s.3.5.4.8c.1.3.2.6.2,1s0,.8-.3,1.2c-.2.4-.4.7-.7,1-.3.3-.7.5-1.2.7-.5.2-1,.2-1.6.2s-1.4-.1-2-.4c-.6-.3-1.2-.6-1.7-1.1l1.1-1.2Z"/>
      <path class="st1" d="M105.7,80.2l-3.1-6.5h2l1.1,2.6c.1.4.3.8.4,1.1s.3.7.5,1.1h0c.2-.4.3-.8.5-1.1.2-.4.3-.7.5-1.1l1.1-2.6h1.9l-3.1,6.5v3.8h-1.8v-3.8Z"/>
      <path class="st1" d="M112,81.4c.4.3.8.6,1.3.8s.9.3,1.4.3,1-.1,1.3-.4.5-.6.5-1,0-.4-.1-.5-.2-.3-.3-.4-.3-.2-.5-.3c-.2,0-.4-.2-.6-.3l-1.4-.6c-.3-.1-.5-.2-.7-.4s-.5-.3-.7-.6-.4-.5-.5-.8c-.1-.3-.2-.6-.2-1s0-.8.3-1.1c.2-.4.4-.7.7-.9s.7-.5,1.1-.6c.4-.1.9-.2,1.4-.2s1.2.1,1.7.4c.6.2,1,.6,1.4,1l-.9,1.2c-.3-.3-.7-.5-1-.6s-.8-.2-1.2-.2-.9.1-1.2.3c-.3.2-.4.5-.4.9s0,.4.1.5c0,.1.2.3.4.4s.3.2.5.3c.2,0,.4.2.6.3l1.4.6c.3.1.6.3.8.4.3.2.5.4.7.6s.3.5.4.8c.1.3.2.6.2,1s0,.8-.3,1.2c-.2.4-.4.7-.7,1-.3.3-.7.5-1.2.7-.5.2-1,.2-1.6.2s-1.4-.1-2-.4c-.6-.3-1.2-.6-1.7-1.1l1.1-1.2Z"/>
      <path class="st1" d="M122,75.2h-3v-1.5h7.8v1.5h-3v8.8h-1.8v-8.8Z"/>
      <path class="st1" d="M128.5,73.7h6.2v1.5h-4.4v2.6h3.7v1.5h-3.7v3h4.5v1.5h-6.4v-10.3Z"/>
      <path class="st1" d="M137,73.7h2l1.9,5.1.7,2h0l.7-2,1.8-5.1h2v10.3h-1.7v-4.7c0-.2,0-.5,0-.8,0-.3,0-.6,0-.9,0-.3,0-.6,0-.9s0-.5,0-.8h0l-.8,2.3-1.8,4.7h-.9l-1.8-4.7-.8-2.3h0c0,.2,0,.5,0,.8s0,.6,0,.9c0,.3,0,.6,0,.9,0,.3,0,.5,0,.8v4.7h-1.7v-10.3Z"/>
    </g>
    <g id="DHS_Seal">
      <circle class="st1" cx="27.4" cy="32.8" r="18.9"/>
      <g>
        <path class="st10" d="M38.8,26c-.2,0-.4.1-.6.2,1.2,1.9,1.8,4.2,1.8,6.6,0,7-5.7,12.7-12.7,12.7s-12.7-5.7-12.7-12.7.7-4.9,2-6.9c-.2,0-.4-.1-.6-.2-1.3,2.1-2,4.5-2,7.1,0,7.3,6,13.3,13.3,13.3s13.3-6,13.3-13.3-.7-4.8-1.9-6.8h0Z"/>
        <path class="st10" d="M20,22.5c2.1-1.5,4.6-2.4,7.4-2.4s5.9,1.1,8.1,2.9c.2,0,.5-.1.7-.2-2.3-2.1-5.4-3.3-8.8-3.3s-5.8,1-8.1,2.7c.1,0,.2,0,.3.1.1,0,.2,0,.4.1h0Z"/>
      </g>
      <path class="st0" d="M27.4,13.9c-10.4,0-18.9,8.4-18.9,18.9s8.4,18.9,18.9,18.9,18.9-8.4,18.9-18.9-8.4-18.9-18.9-18.9ZM27.4,50.5c-9.8,0-17.7-7.9-17.7-17.7s7.9-17.7,17.7-17.7,17.7,7.9,17.7,17.7-7.9,17.7-17.7,17.7Z"/>
      <g>
        <path class="st5" d="M22.8,29c-.3-.1-.5-.3-.8-.5-.8-.7-1-1.5-.8-2.4.1-.5.4-.8.3-1.4,0-.3-.3-.6-.5-.8-.5-.5-1.2-.8-2.1-1.2-.6-.2-2.3-.7-3-1.4-.2.5.2,1.2.6,1.2-.4,0-.7.2-.9.5.3.3.9.7,1.3.7-.2.1-.5.5-.6.6.4.2,1.1.4,1.6.4-.2.2-.4.4-.5.6.3.2,1,.4,1.6.4-.2.1-.6.5-.7.8.4.2,1.1.3,1.6.3-.3.2-.7.5-.9.9.3.2,1,.4,1.5.3-.3.2-.4.6-.5.9.4,0,.8,0,1.3,0-.3.4-.4.9-.5,1.2.4,0,.9,0,1.3-.3,0,.3,0,.7,0,1,.2,0,.3,0,.5-.2,0-.6,0-1.1,0-1.6h0Z"/>
        <path class="st5" d="M39.1,22.3c-.8.7-2,.9-3.2,1.3-.9.3-1.5.5-2.4,1.2-.2.2-.5.5-.5,1,0,.5.1.8.1,1.5,0,.5-.2,1-.4,1.2-.2.3-.6.5-.8.7,0,.5,0,.9,0,1.5.2.1.5.2.6.2.1-.3.2-.7,0-1,.4.2.9.3,1.3.3,0-.4-.2-.9-.5-1.2.5,0,.9,0,1.3,0,0-.3-.3-.6-.5-.9.5,0,1.2-.2,1.5-.3-.2-.3-.6-.7-.9-.9.5,0,1.3-.1,1.6-.3-.2-.2-.5-.6-.8-.8.6,0,1.3-.3,1.6-.4-.1-.2-.3-.4-.5-.6.6,0,1.2-.2,1.6-.4,0-.2-.4-.5-.6-.6,1.3-.3,1.3-1,1.3-1.5h0Z"/>
        <path class="st5" d="M33.7,23.6c-1.8-1.2-4-2-6.4-2s-4.2.6-5.9,1.7c.4.3.7.7.8,1.1,0,.3,0,.7,0,1.3-.2.6-.3,1.2.1,1.9s1,.9,1.5,1h0c.6-.1,1.3-.2,2.1-.3h0c0-.3.4-.6.6-.8.4-.3.3-.6.2-.8,0-.2-.2-.3-.4-.4-.2,0-.8-.2-.8.3-.1-.2-.2-.4-.1-.6,0-.4.7-.5.8-.5-.1,0,0-.2.2-.3.3,0,.6,0,.9,0,.6,0,.7.2,1,.4.4.3.8.4,1,.2-.1.3-.6.5-.8.4.1.4.2.8.2,1.3,0,.2,0,.6.1.8.8,0,1.6.2,2.3.3h0c.3,0,.6-.3.9-.6.3-.3.5-.7.4-1.6,0-.3-.2-.9-.1-1.3,0-.7.6-1.2,1.4-1.6h0Z"/>
        <path class="st5" d="M26.3,25.6c.1,0,.2,0,.2,0,0,0,0,0,0,0,0,0,0,0,0,0,0,0,.2,0,.3-.1.1,0,.3,0,.3,0-.5-.1-.6,0-.9,0h0Z"/>
      </g>
      <g>
        <g>
          <path class="st1" d="M27.4,38.4h-.1c0-.4-.3-.6-.7-.7-.3,0-.7-.2-1.7-.5-1.1-.3-1.6-1.2-1.7-2.3-.1-1.6-.3-4.3-.3-6,1.2-.3,3-.5,4.6-.5s3.3.2,4.6.5c0,1.7-.2,4.5-.3,6,0,1.1-.6,2-1.7,2.3-.9.3-1.4.4-1.7.5-.4.1-.7.4-.7.7h-.1"/>
          <path class="st11" d="M27,34.4h-.2c0-.1-.1-.5-.1-.5h-.3c0-.1-.4-.5-.4-.5l-.2.2h-.3c0,0-.2.4-.2.4l-.3.3-.4.2-.2.4v.2c-.1,0-.4.2-.4.2h-.1c0-.1-.1,0-.1,0l-.2.3c0-.2-.2-.4-.2-.8,0-.7-.1-1.6-.2-2.6,1.2-.3,2.7-.4,4-.4v2.8s-.1,0-.2-.2h0Z"/>
          <path class="st6" d="M27.2,35.8h-3.6c0,.1.1.2.2.3.3.4.6.6,1.1.8.6.2,1,.3,1.3.4h.4c.3.2.5.3.6.5v-2h0Z"/>
          <path class="st5" d="M31,34.4c0,0,.2-.2.4-.2,0-.3,0-.7,0-1.1,0,0,0,0-.1,0-.2.1-.4.3-.8.3s-.6-.1-.8-.2c-.2,0-.3-.2-.4-.2s-.4,0-.5.2c-.2.1-.4.2-.7.2s-.5,0-.6-.2v1s0,0,.1,0c.2,0,.3.2.5.2s.3,0,.4-.2c.2-.1.5-.3.8-.3s.5.1.7.2c.2,0,.3.2.5.2s.3,0,.5-.2h0s0,0,0,0Z"/>
          <path class="st5" d="M28.1,36.7c-.3,0-.5,0-.6-.2v1.2c.1-.1.3-.3.6-.4h.4c.3-.2.7-.3,1.3-.5.2,0,.4-.1.5-.2-.2,0-.4-.1-.5-.2-.2,0-.3-.2-.4-.2s-.4,0-.5.2c-.2.1-.4.2-.7.2h0Z"/>
          <path class="st11" d="M31,32.9c.1,0,.3-.2.5-.2,0-.1,0-.3,0-.4-1.2-.3-2.7-.4-4-.4v1.1s0,0,.1,0c.2,0,.3.2.5.2s.3,0,.4-.2c.2-.1.5-.3.8-.3s.5.1.7.2c.2,0,.3.2.5.2s.3,0,.5-.2h0s0,0,0,0Z"/>
          <path class="st11" d="M27.5,35v1s0,0,.1,0c.2,0,.3.2.5.2s.3,0,.4-.2c.2-.1.5-.3.8-.3s.5.1.7.2c.2,0,.3.2.5.2s.3,0,.4-.1c.2-.3.4-.8.4-1.2h0c0,0,0,0,0,0-.2.1-.4.3-.8.3s-.6-.1-.8-.2c-.2,0-.3-.2-.4-.2s-.4,0-.5.2c-.2.1-.4.2-.7.2s-.5,0-.6-.2h0Z"/>
        </g>
        <g>
          <path class="st5" d="M23.2,32c0-1-.1-2.1-.1-2.9,1.3-.3,3-.5,4.3-.5s3,.2,4.3.5c0,.8,0,1.9-.1,2.9-1.2-.2-2.8-.4-4.1-.4s-2.9.2-4.1.4h0Z"/>
          <polygon class="st1" points="24.1 29.7 24.1 29.5 23.9 29.4 24.1 29.4 24.1 29.2 24.2 29.4 24.5 29.3 24.3 29.5 24.4 29.7 24.2 29.6 24.1 29.7"/>
          <polygon class="st1" points="25.4 29.5 25.3 29.4 25.1 29.6 25.1 29.4 25 29.3 25.2 29.2 25.2 29 25.3 29.2 25.5 29.2 25.3 29.3 25.4 29.5"/>
          <polygon class="st1" points="26.5 29.5 26.3 29.3 26.1 29.5 26.2 29.3 26 29.2 26.2 29.1 26.3 28.9 26.4 29.1 26.6 29.1 26.4 29.3 26.5 29.5"/>
          <polygon class="st1" points="27.5 29.4 27.4 29.3 27.2 29.4 27.3 29.2 27.1 29.1 27.3 29.1 27.4 28.9 27.4 29.1 27.6 29.1 27.5 29.2 27.5 29.4"/>
          <polygon class="st1" points="30.5 29.6 30.3 29.7 30.4 29.5 30.3 29.3 30.5 29.4 30.6 29.2 30.6 29.4 30.8 29.4 30.6 29.5 30.7 29.7 30.5 29.6"/>
          <polygon class="st1" points="29.4 29.3 29.2 29.2 29.4 29.2 29.5 29 29.5 29.2 29.8 29.3 29.6 29.4 29.6 29.6 29.5 29.4 29.3 29.5 29.4 29.3"/>
          <polygon class="st1" points="28.3 29.3 28.1 29.1 28.4 29.1 28.4 28.9 28.5 29.1 28.7 29.2 28.5 29.3 28.6 29.5 28.4 29.3 28.2 29.5 28.3 29.3"/>
          <polygon class="st1" points="24.2 31.4 24.3 31.2 24 31.1 24.3 31.1 24.3 30.8 24.4 31.1 24.6 31 24.4 31.2 24.6 31.4 24.4 31.2 24.2 31.4"/>
          <polygon class="st1" points="25.6 31.2 25.4 31.1 25.2 31.3 25.3 31.1 25.1 31 25.3 30.9 25.3 30.7 25.4 30.9 25.6 30.9 25.5 31 25.6 31.2"/>
          <polygon class="st1" points="26.6 31.2 26.4 31 26.2 31.2 26.3 31 26.1 30.9 26.3 30.9 26.4 30.6 26.4 30.9 26.7 30.8 26.5 31 26.6 31.2"/>
          <polygon class="st1" points="27.6 31.2 27.4 31 27.2 31.2 27.3 30.9 27.1 30.8 27.3 30.8 27.4 30.6 27.5 30.8 27.7 30.8 27.5 30.9 27.6 31.2"/>
          <polygon class="st1" points="30.4 31.3 30.2 31.4 30.3 31.2 30.2 31 30.4 31.1 30.5 30.9 30.5 31.1 30.7 31.1 30.5 31.2 30.6 31.4 30.4 31.3"/>
          <polygon class="st1" points="29.3 31.1 29.2 30.9 29.4 30.9 29.5 30.7 29.5 30.9 29.7 31 29.5 31.1 29.6 31.3 29.4 31.1 29.2 31.2 29.3 31.1"/>
          <polygon class="st1" points="28.3 31 28.1 30.8 28.4 30.9 28.4 30.6 28.5 30.9 28.7 30.9 28.5 31 28.6 31.2 28.4 31 28.2 31.2 28.3 31"/>
          <polygon class="st1" points="24.7 30.4 24.8 30.2 24.6 30.1 24.8 30.1 24.8 29.9 24.9 30.1 25.1 30 25 30.2 25.1 30.4 24.9 30.3 24.7 30.4"/>
          <polygon class="st1" points="23.7 30.6 23.8 30.4 23.5 30.3 23.8 30.2 23.8 30 23.9 30.2 24.1 30.2 23.9 30.3 24.1 30.5 23.9 30.4 23.7 30.6"/>
          <polygon class="st1" points="26.1 30.3 25.9 30.1 25.7 30.3 25.8 30.1 25.6 30 25.8 30 25.8 29.7 25.9 30 26.1 29.9 26 30.1 26.1 30.3"/>
          <polygon class="st1" points="27.1 30.2 26.9 30.1 26.7 30.2 26.8 30 26.6 29.9 26.8 29.9 26.9 29.7 26.9 29.9 27.2 29.9 27 30 27.1 30.2"/>
          <polygon class="st1" points="28.1 30.3 27.9 30.1 27.7 30.2 27.8 30 27.6 29.9 27.8 29.9 27.9 29.7 28 29.9 28.2 29.9 28 30 28.1 30.3"/>
          <polygon class="st1" points="30.9 30.4 30.7 30.5 30.8 30.3 30.6 30.2 30.9 30.2 31 30 31 30.2 31.2 30.3 31 30.4 31 30.6 30.9 30.4"/>
          <polygon class="st1" points="29.8 30.2 29.6 30 29.9 30.1 30 29.9 30 30.1 30.2 30.1 30 30.2 30.1 30.4 29.9 30.3 29.7 30.4 29.8 30.2"/>
          <polygon class="st1" points="28.8 30.1 28.6 29.9 28.8 30 28.9 29.7 29 30 29.2 30 29 30.1 29.1 30.3 28.9 30.2 28.7 30.3 28.8 30.1"/>
        </g>
      </g>
      <path class="st5" d="M39.4,34.3l-.9.3h.2c0,0-.3.3-.3.3,0-.2,0-.4,0-.6l.5-.4v.2l.6-.8-.9.4h.2c0,0-.4.4-.4.4,0-.2,0-.5,0-.7l.5-.6v.2s.5-.8.5-.8l-.8.5h.2s-.4.5-.4.5c0-.1,0-.3,0-.4,0-1.1-.2-2.2-.5-3.2-.5,0-1-.1-1.2-.2.6.4.9.8,1,1.3-.5.1-1.2,0-1.6-.4.4.3.6.8.6,1.4-.5,0-1-.2-1.4-.6.2.3.5.9.5,1.4-.5,0-1-.3-1.2-.7.2.5.3.9.3,1.4-.5,0-.8-.2-1.2-.6.2.5.3,1,.2,1.3-.5-.2-.8-.4-1.1-.9.2.4.2,1,.1,1.3-.4-.1-.7-.4-.9-.8.2.5.2,1,.1,1.3-.2,0-.4-.2-.5-.3,0,0,0,.2,0,.2,0,.3,0,.6-.2.9,0,0,.1.1.1.1.2.2.5.5.8.6-.1,0-.2.1-.4.1.2.2.5.2.7.4-.2,0-.2.1-.4.1.4.3.7.3.9.3,0,0,.3,0,.5,0,.2,0,.5,0,.5.1.1,0,.1.3,0,.4,0,0,0,.1-.1.2,0,0,0,0,0,0s0-.3,0-.4c0,0-.2-.1-.4-.1s-.4,0-.5,0-.2.1-.2.2c0,.1,0,.3-.3.2-.3-.2-.6-.1-1.1-.3,0,.1,0,.2,0,.4-.4,0-.5-.3-.8-.4,0,.1,0,.2.1.4-.3,0-.6-.3-1-.5,0,0,0,0,0,0-.2,0-.3,0-.4.1.3.3.6.8.7,1.3,0,0-.2,0-.5-.1,0,.3.1.6.2.9,0,0-.2,0-.6-.2,0,.3,0,.6,0,.9,0,0-.3-.1-.6-.5,0,.3-.1.6-.2.9,0,0-.2-.2-.5-.6-.1.3-.3.6-.5.9,0,0-.3-.3-.5-.9-.2.4-.5.5-.5.5-.1-.3-.2-.6-.2-.9-.3.3-.6.5-.6.5,0-.3,0-.6,0-.9-.3.2-.6.2-.6.2,0-.3,0-.6.2-.9-.3.1-.5.1-.5.1.1-.5.5-1.1.7-1.3h0c-.1,0-.2,0-.4-.1,0,0,0,0,0,0-.4.1-.7.4-1,.5,0-.1,0-.2.1-.4-.4.1-.5.3-.8.4,0-.1,0-.3,0-.4-.4.2-.8.3-1.1.3-.2,0-.2-.3-.3-.4,0,0-.2,0-.3,0-.1,0-.3,0-.5,0-.2,0-.3,0-.4.1-.1,0,0,.3,0,.4,0,0,0,0,0,0,0,0-.1-.1-.1-.2,0,0,0-.3,0-.4,0,0,.3-.2.5-.1.2,0,.4,0,.5,0s.6-.1,1-.4c-.2,0-.2,0-.4-.1.2-.2.5-.2.7-.4-.1,0-.3-.1-.4-.2.3-.2.5-.3.8-.5,0,0,0,0,.1-.1-.1-.3-.2-.6-.2-.9,0,0,0-.2,0-.2,0,0-.2.2-.5.3-.1-.3,0-.9,0-1.3-.2.4-.5.7-.9.9-.1-.3,0-.9.1-1.3-.3.5-.6.7-1.1.9,0-.4,0-.9.2-1.4-.4.4-.7.5-1.2.6,0-.5,0-.9.3-1.4-.3.3-.9.6-1.3.6,0-.4.3-1,.5-1.3-.4.3-.9.5-1.4.5,0-.5.3-1,.6-1.4-.4.3-1.1.5-1.5.4.1-.5.4-1,.8-1.3-.2,0-.7.2-1.2,0-.3,1-.5,2.1-.5,3.1-.2-.2-.4-.2-.6-.4,0,.2,0,.4,0,.7,0,.5.2.8.6,1,0,.2,0,.3,0,.5-.2-.2-.6-.2-1-.2.3.9.6.9,1.1,1,0,0,0,.2,0,.2-.3,0-.6,0-1,0,.2.4.6.6,1.2.7h0c-.3,0-.7,0-1,.2.4.4.8.5,1.2.5,0,0,0,.1,0,.2-.3,0-.6.2-.8.4.3.1.7.2,1,.1,0,0,0,0,0,0-.2.1-.3.4-.4.7.2,0,.5,0,.7-.1,0,0,0,.2.2.3-.1.2-.2.5,0,.9.2,0,.4-.1.5-.2,0,0,0,.1.1.2,0,.4,0,.8.3,1,0-.1.2-.2.2-.3.5-.8.2-1.3.2-1.8s0,0,0,0c0,.6.6,1.2,0,1.9,0,0,0,0,0,0,2,2.4,5.1,3.9,8.5,3.9,4.8,0,8.9-3,10.5-7.3l.5-.2v.2s.7-.6.7-.6l-.9.2h.2c0,.1-.4.3-.4.3,0-.2.1-.4.2-.6l.6-.3v.2s.7-.7.7-.7l-.9.3h.2c0,0-.5.3-.5.3,0-.2.1-.4.2-.7l.4-.3v.2s.6-.7.6-.7h0s0,0,0,0Z"/>
      <path class="st1" d="M21.5,38.4c.9.7,1.4,1.6,1.6,2.4-.1,0-.3-.2-.5-.1-.1-.8-.5-1.5-1.2-2,0-.1,0-.2.1-.3h0Z"/>
      <g>
        <path class="st1" d="M20.8,39.1c.2,0,.3,0,.4,0,.1-.2,0-.4,0-.4,0,0,0,.1,0,.2,0,0,0,.2-.2.2,0,0-.2,0-.2,0,0,0,0-.1,0-.2,0,0,0,0,0-.1,0,0-.1,0-.2,0s-.1,0-.2,0c0,0,0-.1-.1-.2,0-.1,0-.2.2-.2-.2,0-.2,0-.3,0s-.2-.2-.2-.3c0,0,0,0,.1-.1,0,0,.2,0,.2,0,0,0,0,0,0-.1-.1,0-.4,0-.4,0,0,0,0,.1,0,.3s0,.2.2.2c0,0,0,0,.1,0,0,0,0,0,0,0,0,0,0,.1,0,.2,0,.1.2.2.3.1,0,0,0,0,0,0,0,0,0,0,0,0,0,.1,0,.2.2.2h0Z"/>
        <g>
          <path class="st1" d="M20.6,38.2c0,0,.2,0,.3,0,0,.1,0,.3,0,.4-.2,0-.2-.2-.3-.3Z"/>
          <path class="st1" d="M21,38.2c.1,0,.2,0,.2-.1,0,0,0,0,0,0,0,0,0,.1,0,.2,0,0-.2,0-.2,0h0Z"/>
          <path class="st1" d="M21,38.4c0,0,0,.1,0,.2,0,0,0,0-.1.1,0,0,.1,0,.2,0s0,0,0,0c0-.1,0-.3,0-.3h0Z"/>
        </g>
      </g>
      <g>
        <path class="st1" d="M33.7,38.1c0,.1,0,.3,0,.4.2,0,.2-.2.3-.3,0,0-.2,0-.3,0Z"/>
        <path class="st1" d="M33.6,38.1c-.1,0-.2,0-.2-.1s0,0,0,0c0,0,0,.1,0,.2,0,0,.2,0,.2,0h0Z"/>
        <path class="st1" d="M33.7,38.5c0,0,0-.1,0-.2,0,0,0,.2,0,.3,0,0,0,0,0,0s.2,0,.2,0c0,0,0,0-.1,0h0Z"/>
        <g>
          <path class="st1" d="M37.4,35.1h.2c0,0-3.3,2.6-3.3,2.6h0c0,0,0,0,0,0h0c0,.1.1.1.2.1,0,0,.1,0,.1.1s0,.3-.2.3c-.1,0-.2,0-.3,0,0,0,.2.1.2.3,0,0,0,0-.1.2,0,0-.1,0-.2,0s0,0-.2-.1c0,0,0,0,0,.1,0,0,0,.2,0,.2,0,0-.2,0-.2,0-.1,0-.2,0-.2-.2,0,0,0-.2,0-.2,0,0-.1.2,0,.4,0,0,.2.1.4,0,.1,0,.2,0,.2-.2,0,0,0,0,0-.1,0,0,0,0,0,0,0,0,.2,0,.3-.1.1-.1,0-.2,0-.2s0,0,0,0c0,0,.1,0,.1,0,0,0,.1,0,.2-.2,0-.2,0-.2,0-.3,0,0,0,0-.2,0l3.2-2.6v.2l.6-.8-.9.4h0s0,0,0,0Z"/>
          <path class="st1" d="M35.7,35.8l2.3-2.9v.2c0,0,.5-.9.5-.9l-.8.6h.2l-2.1,2.6c-.2.2-.3.5-.5.8h0c.1-.1.2-.3.4-.4h0Z"/>
          <path class="st1" d="M35.4,36.7c.2-.2.4-.3.6-.5l1.9-1.8v.2s.5-.8.5-.8l-.8.5h.2s-1.9,1.8-1.9,1.8c-.2.2-.3.4-.5.5h0Z"/>
          <path class="st1" d="M37.5,36.3l-2.7,1.4s0,0-.1,0c0,0,0,0,0,0,0,0,0,0,0,0l2.8-1.4v.2s.7-.6.7-.6l-.9.2h.2c0,0,0,.1,0,.1Z"/>
          <path class="st1" d="M33.4,39.2s0,0-.1,0l-.5,1h-.2c0,0-.6,1.1-.6,1.1h.3c0,0,0,.2,0,.2l.5-1.1v-.2c0,0,.4-1,.4-1h0Z"/>
          <path class="st1" d="M35.3,37.3c.2,0,.4-.2.6-.3l1.8-1.2v.2l.6-.7-.9.3h.2c0,0-2,1.4-2,1.4-.1,0-.3.2-.4.3h0Z"/>
          <path class="st1" d="M33.2,38.9s0-.1,0-.2l-.6.7h-.2s-.9.9-.9.9h.3v.2s.8-1,.8-1h.1s.6-.7.6-.7h0Z"/>
          <path class="st1" d="M34.4,37.5c0,0,.2-.2.3-.3l3.1-3.4v.2s.5-.9.5-.9l-.8.5h.2s-3.3,3.6-3.3,3.6c0,0,0,.1,0,.2h0s0,0,0,0Z"/>
          <path class="st1" d="M31.6,39.9l1.2-.8c.1-.1.3-.3.3-.4l-1.5,1h-.2s-.1,0-.1,0l-.9.6h.3c0,0,0,.3,0,.3l.8-.7h.1Z"/>
          <path class="st1" d="M30.6,40l.5-.3.4-.3h.2s1.1-.6,1.3-.8c0,0,0,0,0,0h0l-1.4.7h-.2c0,0-1.1.5-1.1.5h.2c0,0,0,.2,0,.2h0Z"/>
        </g>
        <path class="st1" d="M35.9,33.5h.2s-2,4.1-2,4.1c0,0,0,0,0,0,0,0,0,0,0,0l2-4.1v.2c.1,0,.3-.9.3-.9l-.6.7h0,0Z"/>
        <path class="st1" d="M36.1,34.2h.2l-1.3,1.9c-.2.3-.3.6-.4.8h0s1.8-2.7,1.8-2.7v.2c0,0,.4-.9.4-.9l-.7.7h0Z"/>
      </g>
      <path class="st1" d="M17.6,36.6s0,0,0,0c-.3-.2-.6-.2-1-.2.4,0,.7,0,1.1.2Z"/>
      <path class="st1" d="M17.8,39c0-.3.3-.7.6-1,.2-.2.3-.2.2,0-.3.3-.6.8-.7,1Z"/>
      <path class="st1" d="M18.5,39.8c-.1-.3,0-.8.1-1.1,0-.2.3-.6.4-.6-.2.4-.5,1.4-.5,1.7Z"/>
      <path class="st1" d="M17.5,35.6c0-.1-.1-.2-.2-.2s-.2.1-.2.2c0,.1.1.2.2.2.1,0,.2-.1.2-.2Z"/>
      <path class="st1" d="M19.3,35.9c0-.3,0-.6,0-1-.6.5-.8,1.3-.6,1.8h0c-.1,0-.2.1-.2.3s.1.2.3.2.2-.1.2-.3c0,0,0-.1,0-.1-.1-.5,0-1.1.2-1.4,0,.3-.2,1-.1,1.6,0-.1.2-.2.2-.3,0,0,0,.2,0,.3,0-.5.2-1,.7-1.3-.4.5-.6,1-.6,1.4.3-.3.9-.4.9-1.8-.3,0-.7.3-.9.6h0Z"/>
      <path class="st1" d="M19.7,37.3c0-.1-.1-.2-.3-.2s-.2.1-.2.3c0,.1.1.2.3.2.1,0,.2-.2.2-.3Z"/>
      <path class="st1" d="M19.6,37.9c0-.1-.1-.2-.3-.2s-.2.1-.2.3c0,.1.1.2.3.2s.2-.1.2-.3Z"/>
      <path class="st1" d="M18.3,34.5c-.5.4-.6.9-.5,1.3h0c0,0-.2.1-.1.2s.1.2.2.1c0,0,0,0,0,0,0,.1,0,.2.2.3,0-.1,0-.3,0-.5h0c0-.4,0-.8.2-1.1,0,.4-.2,1.2,0,1.7.1-.5.9-.7.2-2.1,0,0,0,0,0,0Z"/>
      <path class="st1" d="M20.2,37.6c0,0-.1-.2-.2-.1s-.2.1-.1.2c0,0,.1.2.2.1s.2-.1.1-.2Z"/>
      <path class="st1" d="M19.2,37.5c0,0-.1-.1-.2-.1,0,0-.1.1-.1.2,0,0,.1.1.2.1,0,0,.2-.1.1-.2h0Z"/>
      <path class="st1" d="M16.9,35.3c0,0,0-.1-.2-.1-.2-.3-.6-.6-1.1-.7.3.1.8.4,1.1.7,0,0-.1,0-.1.2,0,0,0,.1.2.1,0,0,.1,0,.1-.2Z"/>
      <path class="st1" d="M16.9,34.2c0-.1-.1-.2-.2-.2h0c-.1-.5-.2-.9-.8-1.3.3.4.6.9.8,1.3,0,0-.1.1-.1.2,0,.1.1.2.2.2s.2-.1.1-.2h0Z"/>
      <path class="st1" d="M17.5,36.1c0,0,0-.1-.2-.1,0,0,0,0,0,0-.5-.4-.8-.4-1.1-.5.2,0,.7.2,1.1.5,0,0,0,0,0,0,0,0,0,.1.2.1,0,0,.1,0,.1-.2h0Z"/>
      <path class="st1" d="M17.9,36.8c0-.1-.1-.2-.3-.2s-.2.1-.2.3.1.2.3.2.2-.1.2-.3Z"/>
      <path class="st1" d="M18.2,37.1c0,0,0-.1-.2-.1,0,0,0,0-.1,0-.4,0-.9,0-1.3.2.4,0,.9-.2,1.3-.2h0c0,.2,0,.2.2.2,0,0,.1,0,.1-.2h0Z"/>
      <path class="st1" d="M18.7,37.4c0-.1-.1-.2-.2-.2s-.2.1-.2.2h0c-.3,0-.8,0-1.2.5.3-.2.9-.4,1.2-.4h0c0,0,.1.2.2.1.1,0,.2-.1.2-.2h0Z"/>
      <g>
        <g>
          <path class="st5" d="M41.3,26c.5-.2,1.1-.1,1.3.2.2.3-.2.9-.7,1.1-.5.2-1.1.1-1.3-.2-.2-.3.2-.9.7-1.1h0ZM42.1,27.8c.7-.3,1-1,.7-1.7-.3-.6-1-.9-1.7-.6-.7.3-1,1-.7,1.7s1,.9,1.7.6h0Z"/>
          <path class="st5" d="M41.2,29.5l-.2-1h.2s0,.2,0,.2l2.1-.5v-.3c0,0,0,0,0,0l.4,1.5h0s0,.2,0,.2h-.6c0,.1,0,0,0,0h.3c0,0-.2-.8-.2-.8l-.9.2.2.6h.2c0,0,0,.1,0,.1l-.7.2v-.2c0,0,.2,0,.2,0l-.2-.6-1,.2v.2c0,0,0,0,0,0h0,0Z"/>
        </g>
        <g>
          <path class="st5" d="M11.8,26.9v.3c0,0,1.3.4,1.3.4.4.1.6.3.7.7,0,.2,0,.4,0,.6-.2.6-.6.9-1.1.7l-1.5-.4v.3c0,0-.2,0-.2,0l.3-1h.2s0,.3,0,.3l1.3.4c.4.1.5,0,.7,0,0,0,.1-.2.2-.3.1-.4,0-.8-.5-.9l-1.3-.4v.3c0,0-.2,0-.2,0l.2-.8h.1s0,0,0,0Z"/>
          <path class="st5" d="M14.2,27.4c0,.1-.2.2-.3.1s-.2-.2-.1-.3.2-.2.3-.1c.1,0,.2.2.1.3Z"/>
          <path class="st5" d="M14.7,26.4v.2c0,0-.7-.3-.7-.3v-.2c0,0,.3.1.3.1.2,0,.3-.2.4-.3.1-.2,0-.4,0-.5-.1,0-.3,0-.7.1-.4.2-.4.2-.6.3s-.3,0-.4,0c-.4-.2-.5-.6-.2-1,0-.1.2-.2.3-.3h0c0,0,0-.2,0-.2l.6.3v.2c0,0-.3-.1-.3-.1-.2,0-.2.2-.3.3,0,.2,0,.4.1.5.1,0,.3,0,.6-.2.2,0,.3-.2.3-.2,0,0,.2,0,.3,0,.1,0,.3,0,.4,0,.4.2.5.6.3,1-.1.2-.2.3-.4.4h.1c0,0,0,0,0,0h0Z"/>
          <path class="st5" d="M15.7,24.7c0,.1-.1.2-.2.2s-.2-.1-.2-.2.1-.2.2-.2.2.1.2.2Z"/>
        </g>
        <g>
          <path class="st5" d="M21.5,19.8l-1.6.8h0c0-.1.2-.3.2-.3l-1-1.9h-.2c0,.1,0,0,0,0l1.4-.7h0c0,0,.2-.2.2-.2l.3.5h-.2c0,0-.1-.1-.1-.1l-.7.4.4.8.5-.3v-.2c-.1,0,0,0,0,0l.3.7h-.2c0,0-.1-.1-.1-.1l-.5.3.4.8.7-.4v-.2c-.1,0,0,0,0,0l.2.4h0Z"/>
          <path class="st5" d="M23,19.3l-1,.3v-.2c0,0,.2,0,.2,0l-.7-2.1h-.3c0,0,0,0,0,0l1.1-.4c.4-.1.8,0,1,.4.1.4-.1.8-.5,1,0,0,0,0-.2,0v-.2c0,0,0,0,0,0,.2,0,.3-.3.2-.6-.1-.3-.3-.5-.6-.4h-.2c0,0,.7,2.1.7,2.1h.3c0,0,0,0,0,0h0Z"/>
          <path class="st5" d="M24.3,17.9l.2-1,.5.9h-.7c0,.1,0,.1,0,.1ZM26.1,18.4h-.2s-1.3-2.2-1.3-2.2h-.2s-.5,2.6-.5,2.6h-.2s0,.2,0,.2h.8c0-.1,0-.3,0-.3h-.3c0,0,.1-.6.1-.6l.9-.2.3.6h-.3s0,.2,0,.2l.9-.2v-.2s0,0,0,0h0Z"/>
          <path class="st5" d="M27.2,16.3h.2c.3,0,.4.2.4.5s-.2.5-.4.5h-.2v-1h0ZM28.7,18.4h-.2c0,0-.1,0-.2-.2l-.5-.8c.4-.1.5-.3.5-.7s0-.4-.2-.5c-.1-.1-.3-.2-.6-.2h-1.1v.2h.3v2.2h-.3v.2h1.1v-.2h-.3v-.9h0l.6.9c.1.2.2.2.4.2h.5v-.2h0Z"/>
          <path class="st5" d="M30.4,18.9l-1.2-.2v-.2s.4,0,.4,0l.4-2.1h-.6c0-.1,0,.2,0,.2h-.2s.1-.7.1-.7h.2s0,.1,0,.1l1.8.3h0c0-.1.2,0,.2,0v.6c-.1,0-.3,0-.3,0v-.3c0,0-.6-.1-.6-.1l-.4,2.1h.4c0,0,0,.2,0,.2h0Z"/>
          <path class="st5" d="M33.9,20.1l-1-.4h0c0-.1.3,0,.3,0l.6-1.5-1.4,1.4-.2-2-.6,1.5h.3c0,.1,0,.3,0,.3l-.8-.3h0c0-.1.3,0,.3,0l.8-2h-.3c0-.1,0-.3,0-.3l.6.2.2,1.9,1.4-1.3.7.3h0c0,.1-.3,0-.3,0l-.8,2h.3c0,.1,0,.3,0,.3h0Z"/>
          <path class="st5" d="M35.7,21.3l-1.5-1h0c0-.1.2,0,.2,0l1.2-1.8-.2-.2h0c0-.1,1.3.7,1.3.7h0c0,0,.2,0,.2,0l-.3.5h-.2c0-.1.1-.3.1-.3l-.7-.4-.5.8.5.3v-.2c.1,0,.3.1.3.1l-.4.6h-.2c0-.1.1-.3.1-.3l-.5-.3-.5.8.7.4.2-.2h.2c0,.1-.3.5-.3.5h0Z"/>
          <path class="st5" d="M19.1,19.7c-.4-.6-1.2-.7-1.8-.2l-.9.7h0c0,.1.2,0,.2,0l1.3,1.7c0,0,.1,0,.2,0l.6-.5c.3-.2.5-.5.5-.8,0-.3,0-.7-.2-1h0ZM18.6,21.4l-.2.2-1.2-1.7.3-.2c.4-.3.9,0,1.3.3.3.5.3,1,0,1.3h0Z"/>
          <path class="st5" d="M38.9,20.8h-.1c0,.1.2.3.2.3l-1.1,1.2.3-2.1-.6-.5h-.1c0,.1.2.3.2.3v.2s-1.4,1.5-1.4,1.5l-.2-.2h-.1c0,.1.6.7.6.7h.1c0-.1-.2-.3-.2-.3l1.1-1.2-.2,1.9c.2,0,.5-.1.7-.2,0,0,0,0,0,0l.9-1,.2.2h.1c0-.1-.6-.7-.6-.7h0Z"/>
          <path class="st5" d="M41.5,23.5h0c0,0-1.1-1.4-1.1-1.4h0c0,0-.1-.2-.1-.2l-.5.4v.2c.1,0,.4-.2.4-.2l.4.5-1.7,1.3h0c0-.1,0,0-.1,0l.6.8h.1c0,0-.2-.4-.2-.4l1.7-1.3.4.5-.2.2v.2c.1,0,.6-.4.6-.4v-.2h-.1Z"/>
        </g>
        <g>
          <path class="st5" d="M30.5,49.3h-.2s-.1-.6-.1-.6h.2s0,.2,0,.2c.2,0,.3.1.5,0,.2,0,.4-.2.3-.4,0-.2-.2-.3-.6-.4-.4-.2-.5-.2-.6-.3-.1,0-.2-.2-.2-.4,0-.4.2-.7.6-.8.1,0,.3,0,.4,0h0c0-.1.2-.2.2-.2v.6c.1,0,0,0,0,0v-.2c-.2,0-.3,0-.5,0-.2,0-.3.2-.3.4,0,.1.1.2.5.4.2,0,.3.1.4.1,0,0,.2.1.3.2s.2.2.2.4c0,.4-.2.8-.6.9s-.4,0-.6,0h0c0,.1,0,.1,0,.1Z"/>
          <path class="st5" d="M34.3,48.1l-1.7.7h0c0-.1.3-.2.3-.2l-.8-2h-.3c0,.1,0,0,0,0l1.4-.6h0c0,0,.2-.2.2-.2l.2.6h-.2c0,0,0-.2,0-.2l-.7.3.3.8.6-.2v-.2c0,0,0,0,0,0l.3.7h-.2c0,0,0-.2,0-.2l-.6.2.3.9.8-.3v-.3c0,0,0,0,0,0l.2.5h0Z"/>
          <path class="st5" d="M36.8,46.6c-.2.3-.4.4-.6.6-.7.4-1.4.2-1.8-.4s-.2-1.4.5-1.8c.2-.1.4-.2.6-.2h0c0-.1.2-.2.2-.2l.4.6h-.2c0,.1-.1,0-.1,0-.3,0-.4,0-.6.1-.5.3-.5.8-.2,1.4.3.5.9.7,1.4.5.2,0,.3-.2.4-.4l-.2-.2h.2c0-.1.2.3.2.3h0Z"/>
          <path class="st5" d="M37.9,42.7l-.2.2,1,1c.3.3.4.6.2.9,0,.2-.2.3-.3.5-.5.4-1,.4-1.3,0l-1-1.1-.2.2h-.1c0-.1.8-.8.8-.8h.1c0,.1-.2.3-.2.3l.9,1c.3.3.4.4.6.3,0,0,.2,0,.3-.2.3-.3.3-.7,0-1l-.9-1-.2.2h-.1c0-.1.6-.7.6-.7h.1c0,.1,0,.1,0,.1h0Z"/>
          <path class="st5" d="M42.2,40.5l-.5.9h-.1c0,0,.1-.3.1-.3l-1.9-1v.2c-.1,0-.3,0-.3,0l.5-.9h.1c0,0-.1.3-.1.3l1.9,1v-.2c.1,0,.3,0,.3,0Z"/>
          <path class="st5" d="M43.1,38.3l-.4,1.1h-.1c0,0,.1-.4.1-.4l-2-.7-.2.6h.3c0,.1,0,.3,0,.3l-.6-.2v-.2c0,0,.2,0,.2,0l.6-1.7h0s0-.2,0-.2l.6.2v.2c0,0-.4-.1-.4-.1l-.2.6,2,.7v-.3c.1,0,.3,0,.3,0Z"/>
          <path class="st5" d="M43.8,35.5l-.2,1h-.2s0-.3,0-.3l-1-.2-1.2.5v.2s-.2,0-.2,0l.2-1h.2s0,.3,0,.3l.9-.4-.7-.6v.3c0,0-.2,0-.2,0l.2-.9h.2s0,.3,0,.3l.9.8,1.1.2v-.3c0,0,.2,0,.2,0h0Z"/>
          <path class="st5" d="M41.3,41.9h0c0,.2,0,.2-.3.2h-1c.1-.4,0-.7-.2-.9-.2-.1-.3-.2-.5-.1-.2,0-.3.1-.5.4l-.7.9h.1c0,0,.2-.1.2-.1l1.7,1.3-.2.2h.1c0,0,.6-.7.6-.7h-.1c0,0-.2.1-.2.1l-.8-.6h0c0,0,1,0,1,0,.2,0,.3,0,.4-.2l.3-.4h-.1c0,0,0,0,0,0ZM38.6,41.8v-.2c.3-.2.5-.2.8,0,.2.2.3.4.1.6v.2c-.1,0-.9-.6-.9-.6h0Z"/>
        </g>
        <g>
          <path class="st5" d="M11.4,37.8l-.2-1h.2s0,.2,0,.2l1-.2-.3-1.2-1,.2v.3c0,0,0,0,0,0l-.2-1h.2s0,.2,0,.2l2.1-.5v-.3c0,0,0,0,0,0l.2,1h-.2s0-.2,0-.2l-.9.2.3,1.2.9-.2v-.3c0,0,0,0,0,0l.2,1h-.2s0-.2,0-.2l-2.1.5v.3c0,0,0,0,0,0h0Z"/>
          <path class="st5" d="M12.9,38.4c.5-.2,1.1-.1,1.3.2.2.3-.2.9-.7,1.1-.5.2-1.1.1-1.3-.2-.2-.3.2-.8.7-1.1h0ZM13.7,40.2c.7-.3.9-1,.7-1.7s-1-.9-1.7-.6c-.7.3-.9,1-.7,1.7s1,.9,1.7.6Z"/>
          <path class="st5" d="M14.7,43.7l-.7-.9h.1c0,0,.2.2.2.2l1.3-1-2,.4.9-1.8-1.3.9.2.3h-.1c0,0-.5-.6-.5-.6h.1c0,0,.2.2.2.2l1.8-1.3-.2-.3h.1c0,0,.4.4.4.4l-.9,1.8,1.9-.4.4.6h-.1c0,0-.2-.2-.2-.2l-1.8,1.3.2.3h-.1c0,0,0,0,0,0h0Z"/>
          <path class="st5" d="M16.6,45.7l-1.3-1.2h.1c0-.1.2,0,.2,0l1.5-1.6-.2-.2h.1c0-.1,1.1.9,1.1.9h0c0,0,.2,0,.2,0l-.4.4h-.1c0-.1.2-.3.2-.3l-.6-.5-.6.7.4.4.2-.2h.2c0,.1-.5.7-.5.7h-.2c0-.1.2-.3.2-.3l-.4-.4-.6.7.6.6.2-.2h.2c0,.1-.3.5-.3.5h0Z"/>
          <path class="st5" d="M18.9,47.2l-1.5-1h0c0-.1.2,0,.2,0l1.2-1.8-.2-.2h0c0-.1.9.5.9.5h0c0,.1-.2,0-.2,0l-1.2,1.7.7.5.2-.2h.2c0,.1-.3.5-.3.5h0Z"/>
          <path class="st5" d="M20.4,46.9l.7-.7v1c0,0-.7-.3-.7-.3h0ZM21.6,48.4h-.1c0,0,.1-2.6.1-2.6h-.2c0,0-1.9,1.7-1.9,1.7h-.2c0,0,0,0,0,0l.7.3h0c0-.1-.3-.3-.3-.3l.5-.5.8.4v.7s-.3-.1-.3-.1h0c0,.1.8.5.8.5v-.2h0Z"/>
          <path class="st5" d="M24.2,49.2h-.3c0,0-.8-2.2-.8-2.2l-.4,1.6h.3c0,0,0,.2,0,.2l-.8-.2v-.2s.3,0,.3,0l.5-1.9v-.2c0,0-.3,0-.3,0v-.2s.8.2.8.2l.8,2,.4-1.5h-.3c0,0,0-.2,0-.2l.8.2v.2s-.4,0-.4,0l-.5,2.3h0s0,0,0,0Z"/>
          <path class="st5" d="M26.6,46.9h-1.2s0,.1,0,.1h.3v2.2h-.4c0,.1,1.2.2,1.2.2h0c.4,0,.6,0,.9-.3.3-.2.4-.6.4-.9,0-.7-.5-1.3-1.2-1.3h0ZM27.3,48.2c0,.6-.4,1-.9,1h-.3v-2.1h.4c.4,0,.8.5.8,1.1h0Z"/>
        </g>
      </g>
      <path class="st1" d="M17.9,33.5c-.7.3-1.1,1.2-.7,1.9.3-.5,1-.6.7-1.9ZM17.2,35.3c0-.4.1-1.3.5-1.5-.2.5-.3.9-.5,1.5Z"/>
      <path class="st1" d="M17.1,32.1c-.2,0-.6.4-.7.8,0,0,.1.1.1.2,0-.3.2-.7.4-.8-.1.2-.3.6-.4,1,0,.2.1.4.1.6.4-.4.6-1.1.4-1.8h0Z"/>
    </g>
  </g>
</svg>